<?xml version="1.0" standalone="no"?>
<!DOCTYPE svg PUBLIC "-//W3C//DTD SVG 1.1//EN" "http://www.w3.org/Graphics/SVG/1.1/DTD/svg11.dtd" >
<svg xmlns="http://www.w3.org/2000/svg">
<metadata>
<json>
<![CDATA[
{
	"fontFamily": "asicon",
	"description": "Font generated by IcoMoon.",
	"majorVersion": 1,
	"minorVersion": 0,
	"version": "Version 1.0",
	"fontId": "asicon",
	"psName": "asicon",
	"subFamily": "Regular",
	"fullName": "asicon"
}
]]>
</json>
</metadata>
<defs>
<font id="asicon" horiz-adv-x="1024">
<font-face units-per-em="1024" ascent="921.6" descent="-102.4" />
<missing-glyph horiz-adv-x="1024" />
<glyph unicode="&#x20;" horiz-adv-x="0" d="" />
<glyph unicode="&#x21;" glyph-name="icon-flag-1" data-tags="icon-flag-1" horiz-adv-x="926" d="M32-128c-18 0-32 14-32 30v964c0 16 14 30 32 30 16 0 30-14 30-30v-964c0-16-14-30-30-30zM658 190c-128 0-154 52-154 96 0 22-40 28-74 28-106 0-266-52-268-52-10-4-20-2-28 4s-12 16-12 24v508c0 14 8 24 20 28 8 4 176 58 292 58 114 0 130-54 130-86 0-8 2-18 20-26 12-4 36-12 78-12 100 0 226 34 226 34 10 2 20 0 26-6 8-6 12-14 12-24v-506c0-14-8-28-22-30-6-2-138-38-246-38zM430 374c118 0 136-56 136-88 0-30 56-36 92-36 74 0 166 20 208 30v444c-48-10-130-24-202-24-44 0-78 6-104 16-36 16-56 44-56 82 0 20-38 26-68 26-84 0-204-34-252-48v-444c58 16 164 42 246 42z" />
<glyph unicode="&#x23;" glyph-name="icon-phone" data-tags="icon-phone" horiz-adv-x="958" d="M242 834c26 0 62-40 102-86l2-4 4-4c38-44 66-76 70-100 2-14-2-36-54-82-34-28-62-36-74-38-18-4-34-16-42-34-8-16-10-36-2-54 56-128 142-224 254-290 10-4 20-8 32-8 8 0 14 2 22 4 18 8 32 22 38 40 4 16 16 38 48 64 20 18 38 30 52 38 10 4 18 8 24 8 26 0 64-44 104-90 44-50 68-80 72-104 4-16-2-38-54-82l-6-6c-22-18-46-38-74-52-26-12-52-18-82-18-40 0-86 10-140 32-112 46-198 110-288 214s-140 198-170 314c-46 178 18 234 86 292 20 18 38 30 52 38 10 4 18 8 24 8zM242 896c-16 0-32-4-52-14-18-10-40-24-66-46-72-62-160-140-106-356 34-126 88-228 186-340 96-112 190-180 310-230 60-26 114-38 164-38 40 0 76 8 110 26 38 18 66 44 94 66 44 38 84 82 74 140-8 42-38 80-86 136-54 62-98 110-152 110-16 0-32-4-52-14s-40-24-66-46c-36-30-56-64-66-92-106 60-180 148-228 258 30 8 66 24 102 54 44 40 84 84 74 140-8 42-40 80-88 136-54 62-96 110-152 110z" />
<glyph unicode="&#x24;" glyph-name="icon-dollar" data-tags="icon-dollar" horiz-adv-x="392" d="M226 412v270c60-14 106-68 106-132 0-18 12-30 30-30 16 0 30 12 30 30 0 98-72 180-166 194v122c0 16-14 30-30 30s-30-14-30-30v-122c-94-14-166-96-166-194s72-180 166-194v-270c-60 14-106 68-106 132 0 18-12 30-30 30-16 0-30-12-30-30 0-98 72-180 166-194v-122c0-16 14-30 30-30s30 14 30 30v122c94 14 166 96 166 194s-72 180-166 194zM60 550c0 64 46 118 106 132v-262c-60 12-106 66-106 130zM226 88v262c60-14 106-68 106-132s-46-118-106-130z" />
<glyph unicode="&#x25;" glyph-name="icon-link" data-tags="icon-link" horiz-adv-x="1026" d="M700 296c-34 0-70 16-100 48-12 12-12 32 0 44 10 12 30 12 42 0 26-24 60-42 84-18l214 214c30 30 30 80 0 110l-118 118c-30 30-80 30-110 0l-214-214c-10-8-14-20-12-34 2-16 12-34 30-50 10-12 10-30 0-42-12-12-32-12-44 0-26 26-42 54-48 84-4 32 6 62 30 86l214 214c54 54 142 54 196 0l120-120c54-54 54-142 0-196l-214-214c-20-20-44-30-70-30zM260-128c-38 0-72 14-98 40l-122 122c-26 26-40 60-40 98s14 72 40 98l214 212c22 22 54 34 86 28 30-4 58-20 84-46 12-12 12-32 0-44s-32-12-44 0c-16 16-34 26-50 30-14 2-24-2-34-12l-214-212c-14-14-22-34-22-54 0-22 8-42 22-56l122-120c16-14 36-22 56-22s40 8 54 22l212 214c24 24 6 58-18 84-12 12-12 30 0 42s32 12 44 0c56-56 64-124 18-170l-212-214c-26-26-60-40-98-40zM330 172c-8 0-16 2-22 8-12 12-12 32 0 44l364 364c12 12 30 12 44 0 12-12 12-32 0-44l-364-364c-6-6-14-8-22-8z" />
<glyph unicode="&#x26;" glyph-name="icon-patio" data-tags="icon-patio" horiz-adv-x="992" d="M990 374c-2 260-208 472-464 488v4c0 16-14 30-30 30-18 0-32-14-32-30v-4c-258-16-464-232-464-494 0-18 14-32 30-32h436v-402h-104c-16 0-30-14-30-32 0-16 14-30 30-30h266c18 0 32 14 32 30 0 18-14 32-32 32h-102v402h38v-100c0-18 14-32 32-32 16 0 30 14 30 32v100h336c16 0 30 14 30 32 0 2 0 4-2 6zM62 398c16 226 204 404 434 404s418-178 432-404h-866z" />
<glyph unicode="&#x27;" glyph-name="icon-quote-admin" data-tags="icon-quote-admin" d="M994 896h-964c-16 0-30-14-30-30v-964c0-16 14-30 30-30h964c16 0 30 14 30 30v964c0 16-14 30-30 30zM962-66h-900v900h900v-900zM704 86c18 0 32 14 32 32 0 16-14 30-32 30-50 0-90 40-90 92v66h210c18 0 32 12 32 30v240c0 18-14 32-32 32h-240c-16 0-30-14-30-32v-336c0-84 68-154 150-154zM614 546h180v-178h-180v178zM320 86c16 0 30 14 30 32 0 16-14 30-30 30-50 0-90 40-90 92v66h210c16 0 30 12 30 30v240c0 18-14 32-30 32h-240c-18 0-32-14-32-32v-336c0-84 68-154 152-154zM230 546h180v-178h-180v178z" />
<glyph unicode="&#x28;" glyph-name="icon-smiley" data-tags="icon-smiley" d="M512 960c-282 0-512-230-512-512s230-512 512-512 512 230 512 512-230 512-512 512zM512-2c-248 0-450 202-450 450s202 450 450 450 450-202 450-450-202-450-450-450zM826 430h-628c-16 0-30-14-30-32 0-186 154-336 344-336s344 150 344 336c0 18-14 32-30 32zM512 122c-142 0-266 110-282 246h564c-16-136-140-246-282-246zM328 534c54 0 98 44 98 96 0 54-44 98-98 98s-98-44-98-98c0-52 44-96 98-96zM328 666c20 0 36-16 36-36s-16-36-36-36-36 16-36 36 16 36 36 36zM710 534c54 0 96 44 96 96 0 54-42 98-96 98s-98-44-98-98c0-52 44-96 98-96zM710 666c20 0 36-16 36-36s-16-36-36-36-36 16-36 36 16 36 36 36z" />
<glyph unicode="&#x29;" glyph-name="icon-photos-icon" data-tags="icon-photos-icon" d="M1024 494c0 38-32 70-72 70h-182l-94 132c-6 8-14 12-24 12h-284c-8 0-18-4-24-12l-94-132h-178c-40 0-72-32-72-70v-550c0-40 32-72 72-72h880c40 0 72 32 72 72v550zM952-70h-880c-8 0-14 6-14 14v550c0 6 6 12 14 12h192c10 0 18 6 24 12l96 132h252l94-130c6-8 14-14 24-14h198c8 0 14-4 14-12v-550c0-8-6-14-14-14zM512-8c142 0 258 116 258 258s-116 258-258 258-258-116-258-258 116-258 258-258zM512 452c112 0 202-90 202-202s-90-202-202-202-202 90-202 202 90 202 202 202z" />
<glyph unicode="&#x2a;" glyph-name="icon-user" data-tags="icon-user" d="M512 960c-282 0-512-230-512-512s230-512 512-512 512 230 512 512-230 512-512 512zM512-2c-248 0-450 202-450 450s202 450 450 450 450-202 450-450-202-450-450-450zM610 396l-14 4v26c10 10 20 30 24 56 4 6 8 14 10 24 4 16 2 34-4 46 8 22 20 58 14 88-10 46-66 62-114 62-42 0-74-12-90-30-16-4-26-14-32-22-22-28-12-70-4-96-8-14-10-30-6-50 2-8 6-16 10-22 4-26 16-44 24-54v-30l-12-4c-70-26-118-42-136-78-22-46-22-90-22-92 0-18 14-32 30-32h450c16 0 30 14 30 32 0 2 0 46-22 92-20 36-66 54-136 80zM322 254c4 12 6 22 12 36 8 14 58 32 102 48l32 12c12 4 20 16 20 28v62c0 10-4 18-12 24 0 0-12 12-12 34 0 10-4 18-10 24 6 6 10 16 10 24 0 6 0 12-4 20-8 28-8 42-8 46h2c12 0 24 10 28 20 4 4 20 10 44 10 32 0 52-10 54-14 2-16-10-46-14-58-4-10-6-16-6-24s4-18 10-24c-6-6-10-16-10-24 0-24-14-38-14-38-6-6-10-14-10-24v-58c0-12 8-24 20-28l32-12c44-16 94-34 102-48 6-12 8-24 12-36h-380z" />
<glyph unicode="&#x2b;" glyph-name="icon-add-filter" data-tags="icon-add-filter" d="M994 896h-964c-16 0-30-14-30-30v-964c0-16 14-30 30-30h964c16 0 30 14 30 30v964c0 16-14 30-30 30zM962-66h-900v900h900v-900zM186 354h296v-296c0-18 14-32 30-32s30 14 30 32v296h296c18 0 32 14 32 30s-14 30-32 30h-296v296c0 18-14 30-30 30s-30-12-30-30v-296h-296c-18 0-30-14-30-30s12-30 30-30z" />
<glyph unicode="&#x2c;" glyph-name="icon-front-arrow-no-stem" data-tags="icon-front-arrow-no-stem" horiz-adv-x="532" d="M32 962c8 0 16-4 22-10l468-480c12-12 12-32 0-44l-468-480c-12-14-32-14-44-2s-12 32 0 44l448 460-448 460c-12 12-12 32 0 44 6 4 14 8 22 8z" />
<glyph unicode="&#x2d;" glyph-name="icon-offer" data-tags="icon-offer" horiz-adv-x="1026" d="M1014 228l-288 288c-8 6-16 10-26 10l-664 6c-12 0-18-4-26-12-6-6-10-16-10-24v-588c0-8 4-18 10-24 8-8 16-12 26-12l664 6c10 0 18 4 26 10l288 288c14 14 14 38 0 52zM686-50l-614-6v516l614-6 252-252-252-252zM548 296c-26-24-40-58-40-94s14-70 40-94c26-26 58-40 94-40s70 14 94 40c52 52 52 136 0 188-50 50-138 50-188 0zM686 246c24-24 24-64 0-88s-64-24-88 0c-12 12-18 28-18 44s8 32 18 44c12 12 28 18 44 18s32-6 44-18z" />
<glyph unicode="&#x2e;" glyph-name="icon-get-widget-27" data-tags="icon-get-widget-27" horiz-adv-x="1006" d="M388 476c-8 12-24 12-34 4l-156-124c-6-6-10-12-10-20 0-6 4-14 10-18l154-124c4-2 10-4 14-4 8 0 14 2 20 8 8 10 6 26-4 34l-132 104 134 108c10 8 12 22 4 32zM658 482c-10 6-26 4-34-6s-6-26 6-34l140-104-142-106c-12-8-14-22-6-32 4-8 12-10 20-10 4 0 10 2 14 4l170 126c6 4 8 12 8 18 0 8-2 16-8 20l-168 124zM598 596c-12 4-26-2-30-16l-172-522c-4-12 4-26 16-30 2 0 6-2 8-2 10 0 18 8 22 18l172 522c4 12-4 26-16 30zM940 876h-872c-36 0-68-30-68-66v-872c0-36 32-66 68-66h872c36 0 66 30 66 66v872c2 36-30 66-66 66zM68 830h872c10 0 20-10 20-20v-72h-912v72c0 10 10 20 20 20zM940-82h-872c-10 0-20 10-20 20v752h912v-752c0-10-10-20-20-20z" />
<glyph unicode="&#x2f;" glyph-name="icon-calender" data-tags="icon-calender" d="M992 830h-134v34c0 18-14 32-30 32h-134c-16 0-30-14-30-32v-34h-304v34c0 18-12 32-30 32h-132c-18 0-32-14-32-32v-34h-134c-18 0-32-14-32-32v-894c0-18 14-32 32-32h960c18 0 32 14 32 32v894c0 18-14 32-32 32zM726 834h70v-104h-70v104zM228 834h70v-104h-70v104zM166 766v-68c0-16 14-30 32-30h132c18 0 30 14 30 30v68h302v-68c0-16 14-30 32-30h132c18 0 32 14 32 30v68h102v-168h-898v168h104zM62-66v602h900v-602h-900zM908 292c18 0 32 14 32 32 0 16-14 30-32 30h-216v124c0 16-14 30-32 30-16 0-30-14-30-30v-124h-236v124c0 16-14 30-30 30-18 0-32-14-32-30v-124h-216c-18 0-32-14-32-30 0-18 14-32 32-32h216v-136h-216c-18 0-32-14-32-32 0-16 14-30 32-30h216v-118c0-18 14-32 32-32 16 0 30 14 30 32v118h236v-118c0-18 14-32 30-32 18 0 32 14 32 32v118h216c18 0 32 14 32 30 0 18-14 32-32 32h-216v136h216zM630 156h-236v136h236v-136z" />
<glyph unicode="&#x30;" glyph-name="icon-phone-circle" data-tags="icon-phone-circle" d="M512 896c-282 0-512-230-512-512s230-512 512-512 512 230 512 512-230 512-512 512zM512-66c-248 0-450 202-450 450s202 450 450 450 450-202 450-450-202-450-450-450zM714 332c-26 30-50 58-88 58-12 0-24-4-36-10s-24-12-36-24c-6-6-14-12-18-20-26 20-50 48-68 74 8 4 16 10 22 14 14 14 50 44 42 90-4 26-20 46-44 72l-2 4c-26 28-50 56-88 56-12 0-24-2-36-10-10-4-22-12-34-24-34-28-84-72-56-184 16-60 40-108 86-160 48-56 114-106 168-128 30-12 58-18 82-18 22 0 42 4 62 14 18 8 32 20 44 30l2 2c16 14 52 44 44 90-6 28-24 48-46 74zM676 216l-2-4c-10-8-20-16-32-22-10-4-20-6-34-6-16 0-36 4-58 14-46 18-104 62-146 110-38 46-60 86-72 136-20 76 8 98 36 124 8 6 16 12 22 16 4 2 6 2 10 2 10 0 24-18 40-36l24 20-22-24c18-18 30-32 30-42 2-4 0-12-22-32-14-12-26-14-30-16-10-2-18-8-22-16s-4-18 0-26c24-54 82-118 132-146 10-4 18-6 28-2 8 2 14 10 16 18 4 6 8 16 20 28 10 6 16 12 22 16 4 2 8 2 10 2 10 0 28-20 42-38 20-22 30-34 32-44 0-6-2-14-24-32z" />
<glyph unicode="&#x31;" glyph-name="icon-reviews-circle" data-tags="icon-reviews-circle" d="M512 896c-282 0-512-230-512-512s230-512 512-512 512 230 512 512-230 512-512 512zM512-66c-248 0-450 202-450 450s202 450 450 450 450-202 450-450-202-450-450-450zM690 628c-28 28-82 22-116-12l-274-274c-2-4-4-6-6-10 0 0-2-2-2-4l-42-170c-2-10 0-20 8-28 6-6 12-8 22-8h6l172 44s2 0 2 2c4 0 6 4 8 6l276 274c14 16 26 34 28 52 6 24-2 48-18 64l-64 64zM320 192l18 70 54-54-72-16zM448 236l-84 84 190 190 84-84-190-190zM706 492l-26-24-84 84 24 26c10 8 24 12 30 8l64-64c0-2 2-4 2-10-2-6-6-14-10-20z" />
<glyph unicode="&#x32;" glyph-name="icon-followers" data-tags="icon-followers" d="M1024 448c0-282-230-512-512-512s-512 230-512 512 230 512 512 512 512-230 512-512zM62 448c0-248 202-450 450-450s450 202 450 450-202 450-450 450-450-202-450-450zM778 594v-298c0-18-14-32-30-32h-234v-112c0-12-8-24-20-28-12-6-24-2-34 6l-298 292c-12 12-12 32 0 44l298 294c10 8 22 10 34 6 12-6 20-16 20-28v-114h234c16 0 30-14 30-30zM718 326v238h-236c-16 0-30 14-30 30v70l-224-220 224-220v70c0 18 14 32 30 32h236z" />
<glyph unicode="&#x33;" glyph-name="icon-logo-sharp-corners" data-tags="icon-logo-sharp-corners" d="M510 534c-24 0-44-2-64-6-18-6-34-12-48-20-4 0-6-4-6-8 0-6 4-10 10-10h4c2 0 2 2 2 2 22 12 60 28 112 30 62 4 126-8 126-8-30 8-82 20-136 20zM1024 896h-1024v-482c122-6 150-4 188 2 38 4 88 60 88 60s46 72 158 102c110 30 256-24 256-24 174-62 178-166 178-166v-8s-4-104-178-166c0 0-146-54-256-24-112 30-158 102-158 102s-52 56-90 60c-36 6-64 8-186 2v-482h1024v1024z" />
<glyph unicode="&#x34;" glyph-name="icon-instagram" data-tags="icon-instagram" d="M132 896h760c72 0 132-60 132-132v-760c0-72-60-132-132-132h-760c-72 0-132 60-132 132v760c0 72 60 132 132 132zM746 782c-26 0-46-20-46-46v-110c0-26 20-46 46-46h116c24 0 46 20 46 46v110c0 26-22 46-46 46h-116zM908 462h-90c8-26 14-56 14-86 0-172-144-310-320-310-174 0-318 138-318 310 0 30 6 60 14 86h-94v-432c0-22 18-40 40-40h714c22 0 40 18 40 40v432zM512 586c-112 0-204-90-204-200s92-200 204-200c114 0 206 90 206 200s-92 200-206 200z" />
<glyph unicode="&#x35;" glyph-name="icon-list-circle" data-tags="icon-list-circle" d="M512 896c-282 0-512-230-512-512s230-512 512-512 512 230 512 512-230 512-512 512zM512-66c-248 0-450 202-450 450s202 450 450 450 450-202 450-450-202-450-450-450zM700 592h-318c-16 0-30-14-30-30 0-18 14-32 30-32h318c18 0 32 14 32 32 0 16-14 30-32 30zM700 402h-318c-16 0-30-12-30-30 0-16 14-30 30-30h318c18 0 32 14 32 30 0 18-14 30-32 30zM700 220h-318c-16 0-30-14-30-30s14-30 30-30h318c18 0 32 14 32 30s-14 30-32 30zM302 562c0-18-14-32-30-32-18 0-32 14-32 32 0 16 14 30 32 30 16 0 30-14 30-30zM302 372c0-16-14-30-30-30-18 0-32 14-32 30 0 18 14 30 32 30 16 0 30-12 30-30zM302 190c0-18-14-30-30-30-18 0-32 12-32 30 0 16 14 30 32 30 16 0 30-14 30-30z" />
<glyph unicode="&#x36;" glyph-name="icon-cross-filter" data-tags="icon-cross-filter" d="M994 960h-964c-16 0-30-14-30-30v-964c0-16 14-30 30-30h964c16 0 30 14 30 30v964c0 16-14 30-30 30zM962-2h-900v900h900v-900zM304 196l208 208 208-208c12-12 32-12 44 0s12 30 0 44l-208 208 208 208c12 12 12 32 0 44s-30 12-44 0l-208-208-208 208c-12 12-32 12-44 0s-12-30 0-44l208-208-208-208c-12-12-12-32 0-44s30-12 44 0z" />
<glyph unicode="&#x37;" glyph-name="icon-following" data-tags="icon-following" d="M0 448c0 282 230 512 512 512s512-230 512-512-230-512-512-512-512 230-512 512zM962 448c0 248-202 450-450 450s-450-202-450-450 202-450 450-450 450 202 450 450zM246 302v298c0 18 14 32 30 32h234v112c0 12 8 24 20 28 12 6 24 2 34-6l298-292c12-12 12-32 0-44l-298-294c-10-8-22-10-34-6-12 6-20 16-20 28v114h-234c-16 0-30 14-30 30zM306 570v-238h236c16 0 30-14 30-30v-70l224 220-224 220v-70c0-18-14-32-30-32h-236z" />
<glyph unicode="&#x38;" glyph-name="icon-current-location" data-tags="icon-current-location" d="M512 896c-282 0-512-230-512-512s230-512 512-512 512 230 512 512-230 512-512 512zM554-44v190c0 24-18 42-42 42s-42-18-42-42v-190c-204 20-366 182-386 386h190c24 0 42 18 42 42s-18 42-42 42h-190c20 204 184 366 386 386v-168c0-24 18-42 42-42s42 18 42 42v168c204-20 366-184 386-386h-168c-24 0-42-18-42-42s18-42 42-42h168c-20-204-182-366-386-386z" />
<glyph unicode="&#x39;" glyph-name="icon-location" data-tags="icon-location" d="M506 74c-8 0-18 4-24 10l-154 172c-88 92-82 244 12 338 44 44 102 70 166 70 62 0 122-26 166-70 94-94 98-250 8-340l-152-170c-6-6-14-10-22-10zM378 294l128-142 130 146c0 2 2 2 2 4 62 66 58 180-10 250-32 32-76 50-122 50-48 0-90-18-124-50-70-70-74-190-8-256 2 0 2-2 4-2zM506 300c-68 0-122 54-122 120 0 68 54 122 122 122 66 0 122-54 122-122 0-66-56-120-122-120zM506 482c-34 0-62-28-62-60 0-34 28-62 62-62 32 0 60 28 60 62 0 32-26 60-60 60zM512-128c-282 0-512 230-512 512s230 512 512 512 512-230 512-512-230-512-512-512zM512 834c-248 0-450-202-450-450s202-450 450-450 450 202 450 450-202 450-450 450z" />
<glyph unicode="&#x3a;" glyph-name="icon-pause" data-tags="icon-pause" d="M392-128h-362c-16 0-30 14-30 30v964c0 16 14 30 30 30h362c16 0 30-14 30-30v-964c0-16-14-30-30-30zM62-66h298v900h-298v-900zM994-128h-362c-16 0-30 14-30 30v964c0 16 14 30 30 30h362c16 0 30-14 30-30v-964c0-16-14-30-30-30zM664-66h298v900h-298v-900z" />
<glyph unicode="&#x3b;" glyph-name="icon-tick" data-tags="icon-tick" horiz-adv-x="1020" d="M1010 652c-10 12-30 12-42 0l-706-706-210 210c-12 12-30 12-42 0-12-10-12-30 0-42l232-234c6-4 12-8 20-8s16 4 22 10l726 728c6 6 10 12 10 20s-4 16-10 22z" />
<glyph unicode="&#x3c;" glyph-name="icon-coin" data-tags="icon-coin" d="M512 896c-282 0-512-230-512-512s230-512 512-512 512 230 512 512-230 512-512 512zM512-66c-248 0-450 202-450 450s202 450 450 450 450-202 450-450-202-450-450-450zM564 484c0-18 14-30 30-30 18 0 32 12 32 30 0 62-42 112-100 126v40c0 18-14 30-30 30-18 0-32-12-32-30v-40c-56-14-98-64-98-126s42-112 98-126v-134c-22 10-38 34-38 60 0 18-14 32-30 32-18 0-32-14-32-32 0-60 44-112 100-126v-40c0-16 14-30 30-30 18 0 32 14 32 30v40c56 14 100 66 100 126 0 62-44 112-100 128v132c22-10 38-34 38-60zM426 484c0 26 16 50 38 62v-124c-22 12-38 34-38 62zM564 284c0-26-16-50-38-60v122c22-12 38-34 38-62z" />
<glyph unicode="&#x3d;" glyph-name="icon-tick-filters" data-tags="icon-tick-filters" d="M994-64h-964c-16 0-30 14-30 30v964c0 16 14 30 30 30h964c16 0 30-14 30-30v-964c0-16-14-30-30-30zM62-2h900v900h-900v-900zM378 204h-2c-8 2-16 6-22 12l-188 244c-10 14-8 34 6 44 12 10 32 6 42-6l168-216 430 402c12 10 32 10 44-2s10-32-2-44l-454-426c-6-4-14-8-22-8z" />
<glyph unicode="&#x3e;" glyph-name="icon-at-the-rate" data-tags="icon-at-the-rate" d="M512 896c-282 0-512-230-512-512s230-512 512-512c104 0 204 30 290 90 14 8 16 28 8 42-10 14-30 16-44 8-74-52-162-78-254-78-248 0-450 202-450 450s202 450 450 450 452-202 452-450v-42c0-64-52-116-116-116s-116 52-116 116v42c0 120-100 220-220 220s-220-100-220-220 100-220 220-220c74 0 140 38 180 94 30-56 88-94 154-94 98 0 178 80 178 178v42c0 282-230 512-512 512zM512 226c-88 0-158 70-158 158s70 158 158 158 158-70 158-158-70-158-158-158z" />
<glyph unicode="&#x3f;" glyph-name="icon-open-in-app-phone" data-tags="icon-open-in-app-phone" horiz-adv-x="856" d="M726 896h-364c-72 0-130-58-130-130v-248c0-18 12-32 30-32 16 0 30 14 30 32v150h504v-568h-504v152c0 16-14 30-30 30-18 0-30-14-30-30v-250c0-72 58-130 130-130h364c72 0 130 58 130 130v764c0 72-58 130-130 130zM292 730v36c0 38 32 70 70 70h364c38 0 70-32 70-70v-36h-504zM726-66h-364c-38 0-70 30-70 68v36h502v-36c2-38-30-68-68-68zM594 812h-100c-18 0-30-14-30-30 0-18 12-30 30-30h100c16 0 30 12 30 30 0 16-14 30-30 30zM574-14c0-18-14-32-30-32s-30 14-30 32c0 16 14 30 30 30s30-14 30-30zM436 288c-14-12-14-30-4-44 8-6 16-10 24-10s14 2 20 8l136 118c6 6 10 16 10 24s-4 18-10 24l-136 118c-12 10-32 10-44-4-10-12-10-32 4-44l74-64h-480c-16 0-30-14-30-30s14-30 30-30h480l-74-66z" />
<glyph unicode="&#x40;" glyph-name="icon-back-arrow-no-stem" data-tags="icon-back-arrow-no-stem" horiz-adv-x="532" d="M500-64c-8 0-16 4-22 10l-468 480c-12 12-12 32 0 44l468 480c12 14 32 14 44 2s12-32 0-44l-448-460 448-460c12-12 12-32 0-44-6-4-14-8-22-8z" />
<glyph unicode="&#x41;" glyph-name="icon-tick-in-circle" data-tags="icon-tick-in-circle" d="M700 616l-292-272-84 84c-12 12-30 12-42 0s-12-32 0-44l104-104c6-6 14-10 22-10 6 0 14 2 20 8l314 294c12 12 14 30 2 44-12 12-32 12-44 0zM512 960c-282 0-512-230-512-512s230-512 512-512 512 230 512 512-230 512-512 512zM512-2c-248 0-450 202-450 450s202 450 450 450 450-202 450-450-202-450-450-450z" />
<glyph unicode="&#x42;" glyph-name="icon-beer-mug" data-tags="icon-beer-mug" horiz-adv-x="884" d="M782 104c60 0 102 70 102 164v34c0 92-52 164-118 164h-34c68 24 114 90 114 174 0 100-72 172-172 172-22 0-42-8-58-16-42 66-104 100-180 100-78 0-150-38-192-100-18 8-36 16-58 16-106 0-186-74-186-172 0-92 72-166 166-172 0-6 2-12 2-18l-72-386c-40-12-70-50-70-94 0-54 44-98 98-98h630c54 0 98 44 98 98s-44 98-98 98h-6l-4 36h38zM820 302v-34c0-66-26-100-38-100h-46l-26 232h56c26 2 54-42 54-98zM64 640c0 72 60 108 122 108 14 0 30-10 46-20l6-4c8-4 18-6 26-4 8 4 16 10 20 18 28 58 88 94 152 94s108-32 140-94c4-8 10-14 20-18 8-2 18 0 24 4l6 4c18 10 32 20 48 20 66 0 108-40 108-108 0-60-38-120-108-120-30 0-68 22-88 44-6 8-16 10-24 10-10 0-18-2-24-10-44-48-100-64-162-46-10 4-22 0-30-6s-12-16-12-28c2-18-2-36-14-48-6-6-18-16-34-16s-32 8-42 22c-12 16-18 34-14 52 4 10 0 20-6 28-8 6-16 10-24 10h-4c-72-8-132 44-132 108zM788-30c0-18-16-34-34-34h-630c-18 0-34 16-34 34 0 20 16 34 34 34h630c18 0 34-14 34-34zM164 68l58 310c18-14 40-22 64-22 30 0 60 14 82 36 14 16 24 36 28 56 62-8 120 10 168 50 20-16 46-32 74-38l46-392h-520zM584 324c-2 18-18 30-36 30-18-2-30-18-28-36l20-186c0-16 14-28 30-28h4c18 2 32 16 30 34l-20 186zM422 350c-18 0-32-14-32-32v-182c0-18 14-34 32-34s32 16 32 34v182c0 18-14 32-32 32zM304 342c-18 2-34-12-34-30l-12-174c-2-18 12-34 30-34h2c16 0 30 12 32 30l12 174c0 18-12 34-30 34z" />
<glyph unicode="&#x43;" glyph-name="icon-cuisine" data-tags="icon-cuisine" horiz-adv-x="840" d="M608 896c-16 0-30-14-30-30v-964c0-16 14-30 30-30 18 0 30 14 30 30v262h170c18 0 32 14 32 32 0 370-130 700-232 700zM638 226v578c54-76 134-284 140-578h-140zM366 896c-16 0-30-14-30-30v-210c0-66-46-118-106-134v344c0 16-14 30-32 30-16 0-30-14-30-30v-342c-60 14-106 68-106 132v210c0 16-14 30-30 30-18 0-32-14-32-30v-210c0-98 74-180 168-196v-558c0-16 14-30 30-30 18 0 32 14 32 30v558c94 16 166 98 166 196v210c0 16-14 30-30 30z" />
<glyph unicode="&#x44;" glyph-name="icon-go-out-for-a-meal" data-tags="icon-go-out-for-a-meal" horiz-adv-x="724" d="M296 960c-18 0-32-14-32-30v-234c0-44-30-84-70-96v330c0 16-14 30-30 30-18 0-32-14-32-30v-330c-42 14-72 52-72 96v234c0 16-14 30-30 30s-30-14-30-30v-234c0-80 56-146 132-160v-570c0-16 14-30 30-30 18 0 32 14 32 30v570c74 14 132 82 132 160v234c0 16-14 30-30 30zM560 960c-90 0-162-74-162-164v-98c0-80 56-146 132-160v-572c0-16 14-30 30-30 18 0 32 14 32 30v570c74 14 132 82 132 160v100c0 90-72 164-164 164zM664 696c0-56-46-102-102-102s-102 46-102 102v100c0 56 46 102 102 102s102-46 102-102v-100z" />
<glyph unicode="&#x45;" glyph-name="icon-been-there" data-tags="icon-been-there" horiz-adv-x="826" d="M412-64c-8 0-16 2-24 10l-280 312c-72 76-110 178-106 290 4 108 50 216 126 290 76 76 178 118 284 118 108 0 208-42 284-118 12-10 12-30 0-42-10-12-30-12-42 0-64 64-150 100-242 100-90 0-176-36-240-100-66-66-104-156-108-250-4-98 28-186 92-248 0-2 2-4 2-6l254-280 256 288 4 4c74 78 104 190 82 304-4 16 6 32 24 36 16 4 32-6 36-24 26-136-12-272-102-364h-2l-276-310c-4-8-12-10-22-10zM410 376c-6 0-14 2-20 8l-150 146c-12 10-12 30 0 42s30 12 44 2l126-126 364 362c12 10 30 10 42 0 12-12 12-32 0-44l-384-382c-6-6-14-8-22-8z" />
<glyph unicode="&#x46;" glyph-name="icon-cost-for-two" data-tags="icon-cost-for-two" d="M692 332v450c0 110-310 114-346 114s-346-4-346-114v-580c0-102 252-114 332-114v-102c0-108 288-114 346-114s346 6 346 114v232c0 102-262 112-332 114zM964 104c-10-20-114-54-286-54s-276 34-284 52v46c92-42 258-44 284-44s192 2 284 44l2-44zM630 668c-8-20-112-54-284-54s-276 34-286 52v46c94-42 260-44 286-44s192 2 284 44v-44zM346 552c42 0 198 4 284 44v-44c-8-20-112-54-284-54s-276 34-284 52v46c88-40 244-44 284-44zM346 436c42 0 198 4 284 44v-44c-8-20-112-54-284-54s-276 34-286 52v46c90-40 246-44 286-44zM62 364c88-40 244-44 284-44 42 0 198 4 284 44v-34c-76-2-216-16-274-64h-10c-172 0-276 34-286 52v46h2zM678 166c-164 0-266 32-284 52 18 20 112 50 262 52h22c164 0 266-32 284-52-18-20-120-52-284-52zM346 834c164 0 266-32 284-52-18-20-120-52-284-52s-266 32-284 52c18 20 120 52 284 52zM62 202v44c80-36 214-42 270-42v-56c-164 4-262 36-270 54zM678-66c-172 0-276 34-284 52v46c88-40 242-44 284-44 40 0 198 4 284 44v-44c-8-20-112-54-284-54z" />
<glyph unicode="&#x47;" glyph-name="icon-buffet" data-tags="icon-buffet" d="M994 32h-54c-14 194-156 352-342 390 6 14 12 28 12 44 0 54-44 98-98 98s-98-44-98-98c0-16 6-30 12-44-186-38-328-196-342-390h-54c-16 0-30-12-30-30 0-16 14-30 30-30h20l84-90c6-6 14-10 22-10h704c8 0 16 4 22 10l90 90h22c16 0 30 14 30 30 0 18-14 30-30 30zM476 466c0 20 16 36 36 36s36-16 36-36c0-18-16-34-36-34s-36 16-36 34zM512 370c192 0 350-148 366-338h-732c16 190 174 338 366 338zM848-66h-678l-36 38h752l-38-38zM512 332c-110 0-212-54-274-146-10-14-6-34 8-44 6-2 12-4 18-4 10 0 20 4 26 14 50 74 132 118 222 118 18 0 30 14 30 32 0 16-12 30-30 30z" />
<glyph unicode="&#x48;" glyph-name="icon-happy-hours" data-tags="icon-happy-hours" horiz-adv-x="1026" d="M478 826l-354 64c-12 2-24-4-28-16l-88-250c-2-2-2-4-2-4-24-128 52-248 174-282l-48-264-70 14c-14 2-28-8-30-20-2-14 6-28 20-30l190-36h6c12 0 22 10 24 22 2 14-6 26-20 28l-70 14 48 264c8 0 14-2 22-2 120 0 218 84 240 204v4l8 266c-2 10-10 22-22 24zM136 836l312-56-4-76h-354l46 132zM252 380c-12 0-26 0-38 4-110 18-176 116-158 224l16 46h372l-4-116c-16-94-94-158-188-158zM966-42l-70-12-48 262c122 36 196 154 174 282 0 2-2 2-2 4l-88 250c-4 12-16 20-28 18l-354-66c-12-2-22-12-20-26l6-266v-4c22-118 120-202 240-202 8 0 14 0 22 2l48-264-70-14c-14-2-22-16-20-30 2-12 14-20 26-20h4l190 36c14 2 24 14 20 28-2 16-16 24-30 22zM892 708l46-132h-356l-2 74 312 58zM586 408l-2 116h370l16-46c20-108-48-206-156-224-14-4-26-4-38-4-94 0-172 64-190 158z" />
<glyph unicode="&#x49;" glyph-name="icon-credit-cards" data-tags="icon-credit-cards" horiz-adv-x="1028" d="M538 866l-504-504c-44-44-44-114 0-158l298-298c44-44 114-44 158 0l504 504c44 44 44 114 0 158l-298 298c-44 42-114 42-158 0zM76 318l506 506c20 20 50 20 72 0l36-38-576-576-38 38c-20 20-20 50 0 70zM952 454l-506-506c-20-20-50-20-72 0l-218 220 576 576 220-218c20-22 20-52 0-72z" />
<glyph unicode="&#x4a;" glyph-name="icon-call-admin" data-tags="icon-call-admin" horiz-adv-x="1008" d="M980 422c-14 0-26 12-26 26 0 252-206 458-458 458-16 0-28 12-28 28 0 14 12 26 28 26 282 0 512-230 512-512 0-14-12-26-28-26zM812 422c-16 0-26 12-26 26 0 160-130 290-290 290-16 0-28 12-28 26 0 16 12 28 28 28 188 0 342-156 342-344 0-14-12-26-26-26zM644 422c-16 0-28 12-28 26 0 66-54 120-120 120-16 0-26 12-26 28 0 14 10 26 26 26 96 0 174-78 174-174 0-14-12-26-26-26zM204 752c24 0 52-34 88-72l2-2 2-4c32-38 56-66 60-86 2-12-2-30-46-68-28-26-54-32-62-34-16-4-30-14-36-28-8-16-8-32-2-46 48-110 120-192 216-246 8-6 16-8 26-8 6 0 12 2 18 4 16 6 28 18 32 34 4 12 16 32 42 54 16 16 32 26 44 32 8 4 14 6 20 6 24 0 56-36 90-76 36-42 58-68 60-88 4-12 0-32-44-70l-6-4c-20-16-40-34-64-44-20-12-44-16-68-16-36 0-74 8-120 28-94 38-168 94-244 180-76 90-120 168-144 268-40 152 14 200 72 248 16 16 32 26 44 32 8 4 14 6 20 6zM204 806c-12 0-28-4-44-10-16-10-34-22-56-40-60-54-136-120-88-304 26-106 74-192 156-288 82-94 162-154 264-196 52-22 98-32 140-32 32 0 64 8 92 22 32 14 58 36 80 56 38 34 72 70 64 120-6 36-32 66-74 114-46 54-82 94-128 94-14 0-30-4-46-12s-34-20-54-38c-32-28-50-54-58-80-90 52-152 126-192 222 24 4 56 20 86 44 38 34 72 72 64 120-8 36-34 66-76 114-46 52-82 94-130 94z" />
<glyph unicode="&#x4b;" glyph-name="icon-calendar-line" data-tags="icon-calendar-line" horiz-adv-x="932" d="M828 802h-46v24c0 24-10 68-74 68s-74-44-74-68v-24h-94v24c0 24-10 68-74 68-62 0-72-44-72-68v-24h-96v24c0 24-10 68-74 68-62 0-72-44-72-68v-24h-48c-58 0-104-46-104-104v-722c0-58 48-104 104-104h724c56 0 104 46 104 104v722c0 56-44 102-104 104zM698 826v4c2 2 16 2 20 0v-154c-2-2-16-2-20 0v150zM456 826v4c4 2 18 2 20 0 0 0 2-2 2-4v-150c-4-2-18-2-22 0v150zM214 826v4c4 2 18 2 22 0v-154c-4-2-18-2-22 0v150zM870-26c0-22-20-42-42-42h-724c-24 0-42 20-42 42v724c0 24 18 42 42 42h48v-60c0-26 10-68 74-68 62 0 72 42 72 68v60h96v-60c0-26 10-68 72-68 64 0 74 42 74 68v60h96v-60c0-26 10-68 72-68 64 0 74 42 74 68v60h48c22 0 40-20 40-42v-724zM742 550h-550c-34 0-60-26-60-60v-428c0-34 26-60 60-60h550c32 0 58 26 58 60v428c0 34-26 60-58 60zM738 304h-240v184h240v-184zM434 488v-184h-240v184h240zM194 242h240v-178h-240v178zM498 64v178h240v-178h-240z" />
<glyph unicode="&#x4c;" glyph-name="icon-thin-location-line" data-tags="icon-thin-location-line" horiz-adv-x="844" d="M422 960c-232 0-422-188-422-422 0-92 32-182 88-256l36-42 248-282c12-14 32-22 50-22s38 8 50 22l248 284c12 10 72 96 76 102 34 66 50 142 46 218-10 212-178 384-390 398h-30zM422 4l-250 284c-10 10-20 22-32 34-48 64-72 138-72 216 0 196 158 356 354 356 8 0 16 0 26-2 178-12 318-156 328-334 4-84-22-166-72-234h-2c-10-14-20-24-30-36l-250-284zM422 732c-106 0-192-88-192-194s86-192 192-192 192 86 192 192-86 194-192 194zM422 412c-70 0-126 58-126 126 0 70 56 126 126 126s126-56 126-126c0-68-56-126-126-126z" />
<glyph unicode="&#x4d;" glyph-name="icon-menu-new-line" data-tags="icon-menu-new-line" horiz-adv-x="1016" d="M334 690c-10 0-20-10-20-20v-142c0-26-20-50-46-56v198c0 12-8 20-20 20-10 0-20-8-20-20v-198c-26 6-46 30-46 58v140c0 12-8 20-20 20-10 0-20-8-20-20v-140c0-50 38-92 86-100v-344c0-12 8-22 20-22s20 10 20 22v344c48 8 86 50 86 100v140c0 12-8 20-20 20zM762 690h-2c-12 0-22-8-22-20v-584c0-12 10-22 22-22 10 0 20 10 20 22v172h66c10 0 20 10 20 20v314c0 54-44 98-100 98h-4zM824 590v-292h-44v350c24-6 44-30 44-58zM994 804c-56 12-110 16-158 16-194 0-288-80-328-128-38 48-134 128-326 128-50 0-104-4-160-16-12-2-22-14-22-26v-802c0-10 4-18 12-24 6-4 16-6 24-2 0 0 60 18 146 18 112 0 216-30 310-92 4-4 10-4 14-4h4c6 0 10 0 14 4 94 62 200 92 312 92 86 0 144-18 144-18 8-4 18-2 26 2 6 6 10 14 10 24v802c0 12-8 24-22 26zM478-52c-90 50-192 76-298 76-54 0-96-8-126-14v744c44 8 88 12 126 12 210 0 284-102 298-126v-692zM962 10c-30 6-72 14-126 14-106 0-208-26-298-76v690c14 24 88 126 298 126 40 0 82-2 126-10v-744z" />
<glyph unicode="&#x4e;" glyph-name="icon-sunday-brunch" data-tags="icon-sunday-brunch" horiz-adv-x="1022" d="M368 824c-16 0-32-6-44-18l-190-162c-16-14-24-32-24-54 0-8 2-18 6-28l2-8-6-4c-8-10-14-18-18-28l-88-232c-8-20-6-42 4-60 12-20 30-32 52-36l14-2 2-8c18-72 88-312 238-312h8c24 0 46 12 62 32 48 54 48 178 46 228v8l6 2c24 8 42 26 48 50l12 46v20l8 2c6 4 14 8 20 14l90 76c2 2 4 4 6 8l8 10 6-2c2 0 4-2 8-2h4l48 4c28 2 52 18 62 42l4 8 8-2c36-12 88-24 132-24 78 0 104 36 114 66 42 150-164 282-230 318l-4 4v6c0 18-6 36-20 50-16 18-40 26-64 22l-246-38c-10-2-20-6-28-12l-4-4-6 4c-12 10-30 16-46 16zM320-66h-2c-92 0-148 162-170 232l-4 16 224-36 2-10c0-24 4-150-32-192-6-8-10-10-18-10zM424 200l-316 50c-4 2-8 2-10 0h-2l-36 6 96 258 284-252-16-62zM482 316l-316 272 206 180 210-366-100-86zM640 428l-8 12-182 316 272 44-18-338s0-4 2-6l-2-26-64-2zM906 454c-34 0-78 10-130 26l-8 4 4 50 8 174 16-10c70-46 186-136 162-222-4-14-22-22-52-22z" />
<glyph unicode="&#x4f;" glyph-name="icon-flag" data-tags="icon-flag" horiz-adv-x="792" d="M774 586l-732 308c-4 0-8 2-12 2h-2s-2-2-4-2c-4 0-6 0-8-2-2 0-2 0-2-2-2 0-4-2-4-2l-2-2c-2-2-4-4-6-8v-2c-2-4-2-8-2-10v-964c0-16 14-30 30-30 18 0 30 14 30 30v308l714 318c12 6 18 16 18 30 0 12-8 22-18 28zM60 278v542l624-264-624-278z" />
<glyph unicode="&#x50;" glyph-name="icon-feedback" data-tags="icon-feedback" d="M926 480h-68v218c0 10-6 20-14 26-10 6-20 6-30 0-26-12-48-24-70-36-132-70-236-124-548-124h-50c-82 0-146-72-146-164v-82c0-88 60-148 146-148h50c38 0 72 0 104-2 6-128 74-242 178-294 4-2 8-2 12-2 12 0 24 6 28 16 8 16 2 34-14 42-80 40-136 132-142 234 182-18 272-66 370-120 26-14 54-28 82-44 4-2 8-2 12-2 6 0 12 2 18 4 8 6 14 16 14 26v226h68c56 0 98 38 98 88v42c0 52-46 96-98 96zM146 232c-52 0-84 32-84 86v82c0 50 32 102 84 102h50c38 0 70 0 102 2v-276c-32 2-66 4-102 4h-50zM796 78c-10 8-22 12-34 18-102 58-200 110-402 130v282c208 18 304 70 412 126 8 4 16 10 26 14v-570h-2zM962 342c0-18-18-28-36-28h-68v106h68c18 0 36-18 36-36v-42z" />
<glyph unicode="&#x51;" glyph-name="icon-stats-2" data-tags="icon-stats-2" horiz-adv-x="1020" d="M990-48h-122c-14 0-24 8-30 22l-132 388-120-388c-4-12-16-22-30-22h-64c-14 0-26 10-30 24l-144 678-150-678c-4-14-16-24-30-24h-108c-18 0-30 14-30 30 0 18 12 32 30 32h84l174 790c4 14 16 24 30 24s28-10 30-24l168-790h18l142 456c4 12 14 22 28 22 12 0 26-8 30-22l156-456h100c18 0 30-14 30-32 0-16-12-30-30-30z" />
<glyph unicode="&#x52;" glyph-name="icon-rupee" data-tags="icon-rupee" horiz-adv-x="676" d="M636 750h-156c-14 64-52 112-92 144h256c18 0 32 16 32 34 0 16-14 32-32 32h-612c-18 0-32-16-32-32 0-18 14-34 32-34h228c4-2 8-6 14-8 4 0 110-36 140-136h-370c-18 0-32-16-32-34 0-16 14-32 32-32h376c-6-156-188-212-358-212-12 0-24-6-30-18-4-12-4-24 4-34l402-472c6-8 16-12 26-12 6 0 14 4 20 8 14 12 16 32 4 46l-360 422c216 16 352 120 358 274h150c18 0 32 14 32 32s-14 32-32 32z" />
<glyph unicode="&#x53;" glyph-name="icon-collections-new" data-tags="icon-collections-new" horiz-adv-x="962" d="M476 124l-112-52c-10-6-20 2-20 14l16 122c0 4 0 8-4 10l-84 90c-8 8-2 22 8 22l120 24c4 0 8 2 10 6l60 108c4 10 18 10 24 0l58-108c2-4 6-6 10-6l122-24c10-2 14-14 6-22l-84-90c-2-2-4-6-4-10l16-122c2-12-10-20-20-14l-110 52c-4 2-10 2-12 0zM854-128h-746c-60 0-108 48-108 108v586c0 60 48 108 108 108h746c60 0 108-48 108-110v-584c0-60-48-108-108-108zM108 612c-26 0-46-20-46-46v-586c0-26 20-48 46-48h746c26 0 46 22 46 48v586c0 26-20 46-46 46h-746zM842 724h-722v30c0 18 14 30 32 30h660c16 0 30-12 30-30v-30zM746 834h-530v30c0 18 14 32 32 32h466c18 0 32-14 32-32v-30z" />
<glyph unicode="&#x54;" glyph-name="icon-trophy" data-tags="icon-trophy" horiz-adv-x="1026" d="M1024 786v12c0 18-14 32-30 32h-74v36c0 16-14 30-30 30h-754c-16 0-30-14-30-30v-36h-74c-18 0-32-14-32-32v-16c0-72-2-224 80-306 32-34 74-52 124-54 46-66 100-98 146-126 54-34 88-54 88-120-2-136-46-160-142-160-16 0-30-14-30-30v-84c0-16 14-30 30-30h432c16 0 30 14 30 30v84c0 16-14 30-30 30-102 0-144 48-144 158 0 68 34 90 90 124 46 26 100 60 146 124 48 2 90 20 122 54 86 86 82 250 82 310zM122 518c-60 62-62 182-60 250h46c8-124 28-212 58-278-16 6-30 16-44 28zM642 350c-58-36-120-72-120-176 0-132 60-206 176-218v-22h-370v22c116 10 170 76 172 218 0 104-60 140-120 174-92 56-206 126-214 486h692c-6-358-122-428-216-484zM858 492c30 66 52 154 58 276h46c2-64-4-188-64-250-12-12-26-20-40-26z" />
<glyph unicode="&#x55;" glyph-name="icon-name" data-tags="icon-name" d="M978 86c-32 64-126 98-268 152-18 6-34 12-52 18v92c16 18 46 62 52 126 8 8 16 24 20 42 8 30 4 66-14 90v4c18 40 48 118 36 180-16 78-124 106-212 106-68 0-146-16-174-62-32-4-50-20-60-34-38-52-12-144 4-192v-2c-20-22-24-60-18-90 4-18 12-34 22-42 4-62 34-102 50-120v-98c-16-8-34-14-50-18-142-54-238-88-270-152-44-90-44-180-44-184 0-16 14-30 30-30h962c18 0 32 14 32 30 0 4 0 94-46 184zM64-66c4 30 12 78 36 124 20 44 116 78 236 122 22 8 46 16 70 26 12 4 20 16 20 28v134c0 8-4 18-12 24 0 0-38 32-38 98 0 8-4 16-10 22-2 2-6 6-10 6-4 8-8 24-4 38 0 4 2 10 6 12 10 4 16 16 16 26 0 8-2 16-6 32-10 30-34 108-12 136 2 4 8 12 30 12 14 0 26 10 30 22 2 16 50 38 124 38 78 0 144-26 150-56 8-44-18-114-32-146-6-20-10-28-10-38 0-12 6-22 18-28 2 0 4-6 6-10 2-14-2-30-6-38-10-4-18-16-18-28 0-68-40-108-42-108-6-6-10-14-10-22v-126c0-12 10-24 20-28 26-10 50-18 72-26 120-44 214-80 236-122 24-46 32-94 36-126h-896v2z" />
<glyph unicode="&#x56;" glyph-name="icon-veg-non-veg-circle" data-tags="icon-veg-non-veg-circle" d="M512 960c-282 0-512-230-512-512s230-512 512-512 512 230 512 512-230 512-512 512zM512-2c-248 0-450 202-450 450s202 450 450 450 450-202 450-450-202-450-450-450zM780 448c0-148-120-268-268-268s-268 120-268 268 120 268 268 268 268-120 268-268z" />
<glyph unicode="&#x57;" glyph-name="icon-wand-admin" data-tags="icon-wand-admin" horiz-adv-x="1020" d="M32-128c-8 0-16 2-22 8-12 12-12 32 0 44l544 544c12 12 32 12 44 0s12-32 0-44l-546-544c-4-6-14-8-20-8zM988 566h-132c-16 0-30 14-30 30 0 18 14 32 30 32h132c18 0 32-14 32-32 0-16-14-30-32-30zM822 666c-6 0-16 2-20 8-12 12-12 32 0 44l98 100c12 12 32 12 44 0s12-32 0-44l-100-100c-6-6-14-8-22-8zM724 698c-18 0-32 14-32 32v132c0 18 14 30 32 30 16 0 30-12 30-30v-132c0-18-14-32-30-32zM624 666c-8 0-16 2-22 8l-100 100c-12 12-12 32 0 44s32 12 44 0l100-100c12-12 12-30 0-44-6-6-14-8-22-8zM590 566h-132c-16 0-30 14-30 30 0 18 14 32 30 32h132c18 0 32-14 32-32 0-16-14-30-32-30zM724 284c-18 0-32 14-32 30v134c0 16 14 30 32 30 16 0 30-14 30-30v-134c0-16-14-30-30-30zM922 366c-8 0-16 4-22 10l-98 100c-12 12-12 30 0 42s30 12 42 0l100-98c12-12 12-32 0-44-6-6-14-10-22-10z" />
<glyph unicode="&#x58;" glyph-name="icon-cross-thick" data-tags="icon-cross-thick" horiz-adv-x="1028" d="M596 448l414 414c22 22 22 58 0 80v2c-12 10-26 16-42 16s-30-6-40-16l-414-414-414 412c-10 12-24 18-40 18s-30-6-42-16v-2c-22-22-22-58 0-80l414-414-412-414c-22-22-24-58-2-80l2-2c10-10 26-16 40-16 16 0 32 6 42 16l412 414 414-414c10-10 24-16 40-16s30 6 42 16c20 22 20 60 0 82l-414 414z" />
<glyph unicode="&#x59;" glyph-name="icon-save-admin" data-tags="icon-save-admin" horiz-adv-x="1022" d="M992 894h-828c-8 0-16-4-22-10l-132-132c-6-6-10-12-10-22v-828c0-16 14-30 32-30h960c16 0 30 14 30 30v962c0 16-14 30-30 30zM796 832v-136h-568v136h568zM228-66v70h568v-70h-568zM962-66h-106v100c0 18-12 32-30 32h-630c-16 0-30-14-30-32v-100h-104v784l104 104v-158c0-16 14-30 30-30h630c18 0 30 14 30 30v168h106v-898zM512 596c-108 0-196-88-196-196s88-196 196-196 196 88 196 196-88 196-196 196zM512 264c-76 0-136 62-136 136s60 134 136 134c74 0 134-60 134-134s-60-136-134-136zM512 446c-26 0-48-20-48-46s22-48 48-48 46 22 46 48-20 46-46 46zM512 386c-8 0-14 6-14 14s6 14 14 14 14-6 14-14-6-14-14-14z" />
<glyph unicode="&#x5a;" glyph-name="icon-play-admin" data-tags="icon-play-admin" d="M30-128c-4 0-10 2-16 4-8 6-14 16-14 26v964c0 10 6 20 14 26 10 6 22 6 30 0l964-480c10-6 16-16 16-28s-6-22-16-28l-964-480c-4-2-8-4-14-4zM62 816v-864l862 432-862 432z" />
<glyph unicode="&#x5b;" glyph-name="icon-move-up-admin" data-tags="icon-move-up-admin" d="M512-128c-282 0-512 230-512 512s230 512 512 512 512-230 512-512-230-512-512-512zM512 834c-248 0-450-202-450-450s202-450 450-450 450 202 450 450-202 450-450 450zM658 72h-298c-18 0-32 12-32 30v234h-112c-12 0-24 8-28 20-6 12-2 24 6 34l292 298c12 12 32 12 44 0l294-298c8-10 10-22 6-34-6-12-16-20-28-20h-114v-234c0-18-12-30-30-30zM390 132h238v236c0 16 14 30 30 30h72l-222 224-220-224h72c16 0 30-14 30-30v-236z" />
<glyph unicode="&#x5c;" glyph-name="icon-restaurant" data-tags="icon-restaurant" d="M496 298h-266c-16 0-30-14-30-30v-232c0-18 14-30 30-30h266c16 0 30 12 30 30v232c0 18-14 30-30 30zM464 68h-204v170h204v-170zM1024 566c0 4-2 8-2 12l-2 2v2l-100 166c-6 10-16 16-26 16h-764c-10 0-20-6-26-16l-100-166v-2l-2-2c0-4-2-8-2-12v-32c0-58 26-108 66-138v-492c0-18 14-32 32-32h828c18 0 32 14 32 32v498s-2 2-2 4c40 30 68 78 68 128v32zM938 598h-154l-32 104h124l62-104zM730 446c-22-32-56-48-106-48-42 0-76 12-98 34v104h204v-90zM294 536h170v-106c-22-22-48-32-84-32-46 0-64 12-86 46v92zM464 702v-104h-160l32 104h128zM688 702l32-104h-194v104h162zM148 702h124l-32-104h-154l62 104zM62 536h170v-86c-18-10-54-18-84-18-54 0-86 52-86 102v2zM658-66v304h138v-304h-138zM896-66h-38v334c0 16-14 30-32 30h-198c-18 0-32-14-32-30v-334h-468v438c6 0 12-2 20-2 20 0 70 6 108 22 26-34 62-54 124-54 46 0 84 12 116 38 34-26 78-38 128-38 60 0 110 18 142 54 30-16 66-22 94-22 12 0 24 2 36 6v-442zM962 534c0-54-50-102-102-102-26 0-52 8-68 18v86h170v-2zM778 70c0-10-8-18-18-18-8 0-16 8-16 18 0 8 8 16 16 16 10 0 18-8 18-16z" />
<glyph unicode="&#x5d;" glyph-name="icon-move-down-admin" data-tags="icon-move-down-admin" d="M512 896c282 0 512-230 512-512s-230-512-512-512-512 230-512 512 230 512 512 512zM512-66c248 0 450 202 450 450s-202 450-450 450-450-202-450-450 202-450 450-450zM366 696h298c18 0 32-12 32-30v-234h112c12 0 24-8 28-20 6-12 2-24-6-34l-292-298c-12-12-32-12-44 0l-294 298c-8 10-10 22-6 34 6 12 16 20 28 20h114v234c0 18 14 30 30 30zM634 636h-238v-236c0-16-14-30-30-30h-70l220-224 220 224h-70c-18 0-32 14-32 30v236z" />
<glyph unicode="&#x5e;" glyph-name="icon-wheel-chair" data-tags="icon-wheel-chair" horiz-adv-x="852" d="M850 34c-4 16-22 26-40 20l-68-22c-44 230-92 230-110 230-38 0-246-44-334-62l-30 156 234 48c16 4 28 20 24 38-4 16-20 28-38 24l-232-48-32 180c64 16 114 76 114 146 0 84-68 152-152 152s-152-68-152-152c0-74 54-136 124-148l36-192c-114-32-194-138-194-260 0-150 122-272 272-272s272 122 272 272c0 14-2 26-4 40 38 6 70 12 84 14 18-24 44-118 62-214 2-10 8-18 16-22 4-2 10-4 16-4 4 0 6 0 10 2l102 34c18 6 26 24 20 40zM98 744c0 50 38 90 88 90s88-40 88-90c0-48-38-88-88-88s-88 40-88 88zM480 144c0-114-94-208-208-208-116 0-208 94-208 208 0 90 58 168 142 196l34-184c2-10 8-16 14-22 8-4 16-6 24-4 58 12 134 28 200 42 2-10 2-18 2-28z" />
<glyph unicode="&#x5f;" glyph-name="icon-hookah" data-tags="icon-hookah" horiz-adv-x="966" d="M878 220c-28 28-62 48-98 64l-36 360h92c14 0 26 8 32 20l14 30c6 10-2 20-12 20h-134c80 20 136 78 136 146 0 20-14 36-34 36h-332c-18 0-34-16-34-36 0-68 58-126 136-146h-138c-10 0-16-12-12-20l16-30c4-12 16-20 30-20h92l-20-192c-56 54-146 72-236 12-30-20-50-52-56-88-8-48-44-88-92-94-66-8-122 44-122 108 0 20-16 34-36 34-18 0-34-14-34-34 0-98 80-178 178-178 82 0 152 54 172 132l2 6c12 48 54 82 104 82 60 0 108-50 108-108 0-2 0-4 2-6l-4-34c-38-16-72-36-100-66-78-76-106-190-74-294 6-20 16-52 244-52h46c260 4 270 40 276 60 28 102 0 212-76 288zM554 826h236c-20-30-66-50-118-50s-98 20-118 50zM890-38c-62-22-372-28-438-8-18 78 4 160 60 216 24 24 52 42 84 52 24 8 38 32 34 58l36 364h8l36-364c-4-26 12-48 34-56 32-12 62-30 86-54 54-54 76-134 60-208z" />
<glyph unicode="&#x60;" glyph-name="icon-recommendations-srp" data-tags="icon-recommendations-srp" horiz-adv-x="836" d="M834 442c-8 50-52 86-102 86h-230c-4 0-4 2-6 2v6c6 12 12 26 18 42 32 88 32 186 0 238-18 30-42 38-58 40h-22c-78 0-98-104-104-138-34-180-152-234-238-276-14-6-26-12-38-18-34-18-54-54-54-92v-308c0-58 46-104 104-104h586c52 0 96 38 102 90l44 428-2 4zM688-24h-584c-28 0-50 22-50 48v308c0 18 10 34 26 42 10 6 24 12 36 18 86 40 230 108 268 316 6 34 22 92 50 92h16c6-2 12-6 16-12 20-32 26-110-4-190-6-14-12-26-16-36-8-20-8-40 2-58 10-20 32-32 54-32h230c22 0 42-16 48-36l-10-96h-270c-16 0-28-12-28-28s12-28 28-28h264l-14-126h-250c-16 0-28-12-28-28s12-28 28-28h246l-10-84c-2-24-22-42-48-42z" />
<glyph unicode="&#x61;" glyph-name="icon-log-out" data-tags="icon-log-out" horiz-adv-x="1022" d="M510-88h-480c-8 0-16 2-22 8s-8 14-8 22c0 6 0 132 24 202 20 56 108 86 222 124 28 10 58 18 86 28v56c-24 22-68 72-76 156-16 14-28 38-28 68 0 16 4 34 10 46 4 6 8 12 12 16-10 38-26 100 8 136 12 14 32 22 56 22 30 46 108 64 170 64 74 0 164-24 182-90 12-50-6-102-16-130 12-14 20-36 20-62 0-18-4-34-10-46-4-10-12-18-18-22-6-80-42-122-64-140v-94c0-18-14-32-32-32-16 0-30 14-30 32v110c0 12 6 22 16 28 2 0 50 28 50 116 0 14 10 26 24 30 4 8 4 28 0 36-6 2-12 4-16 8-4 6-8 14-8 22s2 16 8 28c8 24 24 64 16 102-6 20-54 42-122 42s-116-22-122-42c-4-16-20-26-36-24-16 4-22 2-24 0-4-4-8-22 10-82 2-14 4-20 4-28 0-14-10-26-24-30-4-6-4-24 0-32 14-2 24-16 24-30 0-92 62-136 64-138 8-6 12-16 12-24v-94c0-12-6-24-18-28-36-14-72-26-108-38-74-24-174-56-184-84-14-42-20-112-22-152h450c16 0 30-14 30-30 2-16-12-30-30-30zM798-128c-4 0-8 0-12 2-12 6-18 16-18 28v82h-174c-16 0-30 14-30 32v160c0 16 14 30 30 30h174v82c0 12 6 24 18 28 12 6 24 2 34-6l192-192c12-12 12-32 0-44l-192-192c-6-6-14-10-22-10zM624 46h174c16 0 30-14 30-30v-40l120 120-120 118v-38c0-18-14-32-30-32h-174v-98z" />
<glyph unicode="&#x62;" glyph-name="icon-bar" data-tags="icon-bar" d="M858 844c-92 0-166-74-166-166v-4h-360l-168 170h-164v-64h138l106-106h-58c-14 0-24-6-30-18-4-12-2-26 8-34l328-328v-360h-138c-18 0-32-14-32-30 0-18 14-32 32-32h336c18 0 30 14 30 32 0 16-12 30-30 30h-138v360l234 234c24-10 48-16 72-16 92 0 166 74 166 166s-74 166-166 166zM784 612l-262-260-262 260h524zM858 574c-8 0-16 2-22 4l44 44c8 8 12 22 6 34-4 12-16 18-28 18h-102c0 2-2 2-2 4 0 56 48 102 104 102s104-46 104-102c0-58-46-104-104-104z" />
<glyph unicode="&#x63;" glyph-name="icon-open-now" data-tags="icon-open-now" d="M512 896c-282 0-512-230-512-512s230-512 512-512 512 230 512 512-230 512-512 512zM512-66c-248 0-450 202-450 450s202 450 450 450 450-202 450-450-202-450-450-450zM544 724c0 16-14 30-30 30-10 0-16-4-22-10s-8-12-8-20v-338c0-8 2-16 10-22l168-158c12-10 32-10 44 2 10 12 10 32-2 44l-158 148-2 324z" />
<glyph unicode="&#x64;" glyph-name="icon-delivery" data-tags="icon-delivery" d="M810 344h-52v72c20-10 44-16 70-16 16 0 30 14 30 30v166c0 18-14 30-30 30-26 0-50-6-70-16-6 44-34 66-80 66h-66c-18 0-32-14-32-30 0-18 14-32 32-32h66c18 0 20 0 20-18v-232c0-94-48-170-120-202-14 62-48 122-98 164 26 14 46 42 46 70v84c0 18-14 30-30 30h-432c-16 0-30-12-30-30v-48c0-8 2-16 8-22l74-76c-68-48-116-130-116-220 0-16 14-30 30-30h56c14-76 80-132 160-132s146 56 160 132h90c20 0 42 2 62 8 2 0 4 0 6 2 20 4 40 14 58 24h42v-4c0-90 72-162 164-162 90 0 162 72 162 162v4h4c16 0 30 14 30 30 0 100-106 196-214 196zM160 378l-66 66v6h370v-52c0-8-12-20-18-20h-286zM246 12c-46 0-84 30-96 72h194c-14-42-52-72-98-72zM496 146h-432c16 90 96 170 182 170h100c86 0 156-86 172-170h-22zM810 284c64 0 128-50 148-106h-264c26 30 42 66 54 106h62zM796 560v-94c-24 6-38 24-38 48 0 22 14 40 38 46zM930 114c0-56-46-100-102-100s-102 44-102 100v4h204v-4z" />
<glyph unicode="&#x65;" glyph-name="icon-edit-profile-new" data-tags="icon-edit-profile-new" horiz-adv-x="1026" d="M82 266l6-4-86-348c-4-12 0-24 8-32s20-10 32-8l350 88h2l2 2c2 0 6 2 8 6l566 564c26 26 44 60 52 94 8 38-4 78-32 104l-130 132c-20 20-48 32-80 32-42 0-86-20-120-54l-562-564c-4-4-6-6-8-10 0-2 0-4-2-4l-6 2zM80-48l58 238 178-180-236-58zM382 40l-214 214 430 430 214-214-430-430zM858 516l-214 214 72 72c34 30 76 36 98 14l130-130c4-4 18-18 12-46-4-18-14-36-28-52l-70-72z" />
<glyph unicode="&#x66;" glyph-name="icon-like-heart-new" data-tags="icon-like-heart-new" d="M942 754c-54 58-128 90-208 90-76 0-148-30-202-82l-20-20-20 20c-54 52-126 82-202 82-80 0-154-32-208-90-54-56-84-128-82-206s32-150 88-204l396-382c6-6 14-10 22-10 2 0 4 0 6 2 2-2 4-2 6-2 8 0 14 4 22 10l396 382c56 54 86 126 88 204 2 76-28 150-82 206zM892 388l-380-368-380 368c-44 42-70 100-70 160-2 62 20 120 64 164 42 46 102 70 164 70 60 0 116-24 160-64l40-40c12-12 32-12 42 0l42 40c42 42 100 64 160 64 62 0 120-26 164-70 42-44 66-102 64-164 0-60-26-118-70-160z" />
<glyph unicode="&#x67;" glyph-name="icon-globe" data-tags="icon-globe" d="M894 788c-2 4-4 6-8 8-60 66-138 116-226 142h-2c-46 14-96 22-146 22-282 0-512-230-512-512s230-512 512-512 512 230 512 512c0 130-50 250-130 340zM834 762c-8-26-30-86-76-114-72 12-146-24-166-48-14-18-8-34-6-38 4-8 12-14 20-18 6-10 16-38 24-62 0-6 4-10 8-14 18-18 42-20 62-16-8-22-40-56-54-72-24-26-38-40-38-58 0-22 14-36 24-44h2c-24-24-48-32-48-32-12-4-20-16-20-28 0-18 0-72-88-74-14 14-38 60-40 74 0 2 6 12 8 18 6 12 14 26 14 44 0 26-24 56-42 76-2 26-10 46-26 62-26 24-64 22-100 20h-30c-32 0-32 50-32 52s0 122 80 138c46 8 64 4 68 2 2-6 4-10 8-16 42-40 104-26 150-16 14 4 30 8 40 8 16 0 28 10 30 26 12 84 6 136-20 154-12 10-28 10-44 2-14-6-24-6-30-2-8 4-10 14-10 20-2 16 68 52 150 70 68-22 132-62 182-114zM512-2c-248 0-450 202-450 450s202 450 450 450h10c-48-22-86-54-82-98 2-30 16-56 40-68 20-12 44-12 68-6 2-14 2-38-2-62-8-2-16-4-26-6-30-8-66-16-86-4-4 6-8 14-16 22-24 18-64 22-122 12-128-26-128-190-128-198 0-40 18-114 92-114h34c22 2 48 4 56-4 4-4 6-14 6-28 0-8 2-16 10-22 14-16 30-36 32-40 0-4-4-12-8-18-6-12-14-28-14-46 0-24 44-134 94-134 90 0 146 42 156 114 14 8 34 20 54 40 14 14 20 28 20 42-2 22-14 34-26 44 6 4 10 10 14 14 40 40 112 116 54 174-8 10-22 12-34 6-8-4-18-6-24-6-8 28-16 48-24 62 24 10 60 22 96 12 6-2 14 0 20 2 54 28 86 80 104 120 52-74 82-164 82-260 0-248-202-450-450-450z" />
<glyph unicode="&#x68;" glyph-name="icon-twitter-box" data-tags="icon-twitter-box" d="M832 960h-832c-2 0 0 0 0 0v-1024h1022s2 86 2 192v832h-192zM778 570s10-96-40-190c-48-94-108-156-220-188s-330 38-330 38 84-4 126 14c40 18 66 38 66 38s-48 10-80 34c-30 22-42 62-42 62s40-4 52 2c12 4-34 8-70 56-36 50-24 82-24 82s14-14 30-20 28-6 28-6-46 28-56 76c-12 46 14 114 14 114s30-38 92-78c64-38 52-32 98-52 44-20 88-10 88-10s-10 80 22 120c34 40 68 52 110 48 74-4 110-52 110-52l72 38-32-68 46 12-60-70z" />
<glyph unicode="&#x69;" glyph-name="icon-plus" data-tags="icon-plus" horiz-adv-x="1028" d="M996 418h-450v450c0 18-14 32-32 32-16 0-32-14-32-32v-450h-450c-18 0-32-16-32-32 0-18 14-32 32-32h450v-450c0-18 16-32 32-32 18 0 32 14 32 32v450h450c18 0 32 14 32 32s-14 32-32 32z" />
<glyph unicode="&#x6a;" glyph-name="icon-play-circle-admin" data-tags="icon-play-circle-admin" d="M372 148c-4 0-10 2-16 4-8 6-14 16-14 26v412c0 10 6 20 14 26 10 6 20 6 30 2l412-206c10-6 16-16 16-28s-6-22-16-28l-412-206c-4-2-8-2-14-2zM404 540v-312l312 156-312 156zM512-128c-282 0-512 230-512 512s230 512 512 512 512-230 512-512-230-512-512-512zM512 836c-248 0-450-204-450-452s202-450 450-450 450 202 450 450-202 452-450 452z" />
<glyph unicode="&#x6b;" glyph-name="icon-recently-viewed" data-tags="icon-recently-viewed" horiz-adv-x="1014" d="M504 896c-182 0-348-96-440-250v106c0 18-14 32-32 32s-30-14-30-32v-228c0-10 6-20 14-26 6-4 12-6 16-6 6 0 10 2 14 4l192 100c16 8 22 26 14 42s-26 22-42 14l-102-54c78 146 230 236 394 236 248 0 450-202 450-450s-202-450-450-450c-212 0-396 152-440 358-4 18-20 28-36 24-18-2-28-18-24-36 48-236 260-408 502-408 282 0 510 230 510 512s-228 512-510 512zM64 576v0zM666 200c-6 0-14 2-18 6l-158 118c-8 6-14 16-14 26v298c0 18 14 32 32 32s32-14 32-32v-282l144-110c14-10 18-30 8-44-8-8-16-12-26-12z" />
<glyph unicode="&#x6c;" glyph-name="icon-lists-web" data-tags="icon-lists-web" d="M986 640h-624c-22 0-38 18-38 38 0 22 16 38 38 38h624c22 0 38-16 38-38 0-20-18-38-38-38zM986 308h-624c-22 0-38 16-38 38 0 20 16 38 38 38h624c22 0 38-18 38-38 0-22-18-38-38-38zM986-60h-624c-22 0-38 16-38 38 0 20 16 38 38 38h624c22 0 38-18 38-38 0-22-18-38-38-38zM104 714c20 0 36-16 36-36 0-18-16-34-36-34-18 0-34 16-34 34 0 20 16 36 34 36zM104 784c-56 0-104-48-104-106s48-104 104-104c58 0 106 46 106 104s-48 106-106 106zM104 380c20 0 36-16 36-34 0-20-16-34-36-34-18 0-34 14-34 34 0 18 16 34 34 34zM104 450c-56 0-104-46-104-104s48-106 104-106c58 0 106 48 106 106s-48 104-106 104zM104 14c20 0 36-16 36-36 0-18-16-34-36-34-18 0-34 16-34 34 0 20 16 36 34 36zM104 84c-56 0-104-48-104-106s48-106 104-106c58 0 106 48 106 106s-48 106-106 106z" />
<glyph unicode="&#x6d;" glyph-name="icon-about-rocket" data-tags="icon-about-rocket" horiz-adv-x="916" d="M452-128c-42 0-84 8-122 26-22 10-36 32-36 54v38c-50-12-136-56-200-96-20-12-44-12-62 0-20 10-32 32-30 56 14 202 132 340 182 388 18 300 222 534 226 538 10 12 24 18 40 20h6c16 0 32-8 42-20 8-8 202-228 224-526 38-36 176-178 194-400 0-26-12-46-28-56-18-10-42-10-62 0-62 38-162 92-212 100v-42c0-22-12-42-32-52-14-8-64-28-130-28zM358-46c30-12 60-18 94-18 54 0 92 16 100 18v84l18 10c6 2 12 4 18 8l48-2c76-16 188-82 218-102-16 170-114 290-158 336l-34 42c-16 266-182 470-208 500-26-32-196-248-208-506v-14l-10-8c-36-34-154-160-170-352 34 22 168 102 244 106h10l8-4c2-2 4-2 6-2 2-2 6-4 8-6l16-10v-80zM454 198c-72 0-130 60-130 130 0 72 58 130 130 130s130-58 130-130c0-70-58-130-130-130zM454 394c-36 0-66-28-66-66 0-36 28-66 66-66 36 0 66 30 66 66 0 38-30 66-66 66z" />
<glyph unicode="&#x6e;" glyph-name="icon-network" data-tags="icon-network" horiz-adv-x="1022" d="M458 240v46c16 14 36 42 40 100 18 14 28 42 28 68 0 16-4 30-10 40-2 4-6 6-8 8 10 24 20 60 12 98-14 52-74 86-156 86-66 0-120-22-144-60-26 0-42-14-48-24-18-30-4-68 8-98-4-4-6-6-8-10-8-12-12-26-12-42 0-26 10-54 28-68 4-58 26-86 44-100v-46c-62-26-232-102-232-154v-182c0-16 14-30 30-30h630c18 0 32 14 32 30v182c-2 52-172 130-234 156zM628-66h-568v144c20 20 114 72 212 112 12 6 20 16 20 30v82c0 14-8 24-20 28 0 0-24 12-24 76 0 14-10 26-24 30-2 4-4 16-2 22 14 2 26 16 26 32 0 8-2 14-8 28-4 8-14 34-16 46h8c16-4 32 6 36 22 6 22 48 40 96 40 50 0 90-18 96-40 6-26-6-54-12-72-6-10-8-16-8-24 0-16 10-28 24-32 2-6 0-18-2-22-14-4-24-16-24-30 0-64-20-74-20-76-12-4-22-14-22-28v-84c0-12 8-24 20-28 100-40 192-92 214-112v-144h-2zM902 164c-26 8-54 16-80 26v26c20 12 46 38 52 88 16 14 22 40 22 64 0 10-2 26-8 40 0 2-2 4-4 6 10 22 22 52 10 84-16 50-80 68-132 68-46 0-96-12-122-44-20-2-32-10-40-18-20-26-10-60 0-86-4-2-6-6-8-10-6-14-8-28-8-40 0-24 8-50 22-64 6-48 32-74 56-88v-30c0-18 14-32 32-32 16 0 30 14 30 32v50c0 14-10 26-24 28 0 0-32 10-32 58 0 12-8 24-20 28-2 6-2 18-2 26 12 4 22 16 22 30 0 8-4 14-8 24-2 6-6 20-8 30 14-4 30 4 34 20 4 12 34 26 76 26s72-14 76-26c6-16-6-36-14-48-4-8-8-16-8-26 0-14 8-24 20-30 0-6 0-18-2-26-12-4-20-14-20-28 0-46-26-56-30-56-12-4-22-16-22-30v-66c0-14 8-24 20-30 32-12 70-24 102-34 28-8 62-20 78-26v-146h-202c-18 0-30-14-30-30 0-18 12-32 30-32h230c18 0 32 14 32 32v188c0 36-40 48-120 72z" />
<glyph unicode="&#x6f;" glyph-name="icon-website" data-tags="icon-website" d="M512 960c-282 0-512-230-512-512s230-512 512-512 512 230 512 512-230 512-512 512zM356 258c-16 52-26 106-28 160h370c-2-56-12-110-28-160-104 24-212 22-314 0zM646 200c-30-70-72-132-126-188-4-2-6-6-8-10-2 4-4 8-6 10-56 56-98 120-128 188 88 18 180 18 268 0zM326 478c4 54 12 108 30 160 52-12 104-18 156-18s106 6 158 18c16-52 24-104 28-160h-372zM378 696c30 68 72 132 128 188 2 2 4 6 6 10 2-4 4-8 6-10 56-56 98-120 130-188-90-20-182-20-270 0zM596 890c90-16 170-60 234-122-40-24-80-42-122-56-28 64-66 124-112 178zM318 712c-44 14-84 32-122 56 62 62 142 106 234 122-48-54-86-114-112-178zM296 654c-18-58-28-116-30-176h-204c8 92 40 174 92 244 46-28 94-52 142-68zM266 418c2-60 12-120 30-178-48-16-96-38-140-66-54 68-86 152-94 244h204zM318 182c28-62 64-122 112-176-90 16-170 60-234 120 40 24 80 42 122 56zM706 182c42-14 84-32 122-56-62-60-142-104-234-120 48 52 86 112 112 176zM728 240c18 56 28 116 32 178h202c-6-92-40-176-92-244-46 28-94 50-142 66zM760 478c-4 62-14 120-32 176 50 16 96 40 142 66 52-68 86-150 92-242h-202z" />
<glyph unicode="&#x70;" glyph-name="icon-picture" data-tags="icon-picture" d="M0 896v-1024h1024v1024h-1024zM962 834v-816l-140 274c-32 64-66 96-102 96-46 0-78-54-98-90l-128-218c-42 48-122 126-222 126-86 0-162-102-210-184v812h900zM936-66h-852c46 94 122 210 188 210 106 0 198-134 200-136 6-8 16-14 26-14s20 6 26 16l152 260c26 46 38 56 44 58 0 0 18-4 48-64l168-330zM244 502h136c34 0 68 14 92 40 24 24 38 58 38 92 0 76-60 136-136 136-56 0-104-34-124-84-52 0-94-42-94-94 0-48 40-90 88-90zM248 626c4 0 8-2 12-2l36-14 6 36c6 36 36 64 72 64 42 0 74-34 74-74 0-20-8-38-20-52-14-12-30-20-50-20h-134c-16 0-28 14-28 30s14 32 32 32z" />
<glyph unicode="&#x71;" glyph-name="icon-stats-admin" data-tags="icon-stats-admin" d="M512 896c-282 0-512-230-512-512s230-512 512-512 512 230 512 512-230 512-512 512zM512-64c-248 0-448 200-448 448s200 448 448 448 448-200 448-448-200-448-448-448zM204 352c16 0 32 14 32 32s-16 32-32 32h-70c-16 0-32-14-32-32s16-32 32-32h70zM240 532l-64 26c-16 6-36-2-42-18s2-34 18-42l64-26c4 0 8-2 12-2 12 0 24 8 28 20 6 16-2 34-16 42zM268 674c-12 12-32 12-46 0-12-14-12-32 0-46l50-48c6-6 14-10 22-10s16 4 22 10c12 12 12 32 0 44l-48 50zM422 682l-26 62c-6 18-24 26-40 18-18-6-24-24-18-42l26-62c6-12 16-20 30-20 4 0 8 0 12 2 16 6 24 26 16 42zM512 660c18 0 32 16 32 32v70c0 16-14 32-32 32s-32-16-32-32v-70c0-16 14-32 32-32zM668 762c-16 6-34-2-40-18l-26-62c-8-16 0-36 16-42 4-2 8-2 12-2 12 0 24 6 30 18l26 64c6 16-2 36-18 42zM812 672c-12 14-32 14-46 0l-48-48c-12-12-12-32 0-44 6-6 14-10 22-10 10 0 16 4 24 10l48 48c12 12 12 32 0 44zM768 490c6-12 16-20 30-20 4 0 8 2 12 4l62 26c18 6 26 24 18 40-6 18-24 24-42 18l-62-26c-16-8-24-26-18-42zM890 416h-70c-16 0-32-14-32-32s16-32 32-32h70c16 0 32 14 32 32s-16 32-32 32zM872 268l-62 26c-16 8-36 0-42-16s2-36 18-42l62-26c4-2 10-2 14-2 12 0 24 6 28 18 6 18-2 36-18 42zM214 296l-62-28c-18-6-26-24-18-40 4-12 16-20 28-20 4 0 10 0 14 2l62 26c16 8 24 26 18 42s-26 24-42 18zM544 306v244c0 18-14 32-32 32s-32-14-32-32v-244c-14-6-28-14-40-24-38-38-38-102 0-142 20-18 44-28 72-28 26 0 52 10 72 28 38 40 38 104 0 142-12 12-26 18-40 24zM538 186c-14-14-38-14-52 0s-14 38 0 52c8 6 16 10 26 10s18-4 26-10c14-16 14-38 0-52z" />
<glyph unicode="&#x72;" glyph-name="icon-review-line" data-tags="icon-review-line" horiz-adv-x="1022" d="M974 364l-292 2c-10 0-18-6-22-14l-2-4c-24-48-82-76-130-60-24 8-44 26-60 48-20 36-20 82 2 116 26 40 72 56 118 46 28-6 54-26 70-50 6-8 14-12 22-12l294-4c26 0 48 22 48 50 0 26-30 50-44 54-30 12-104 64-220 150-50 42-90 84-114 110l-22 22c-20 18-42 24-66 22h-4l-342-102c-10-2-22-8-30-18-12 14-28 22-46 24h-58c-44 0-74-44-74-84l-2-496c0-40 30-84 72-84h58c18 0 36 10 48 22 8-10 18-16 26-18l350-114c6 0 10-2 14-2 20 0 40 8 54 24 24 26 86 94 138 134 78 60 176 118 214 132 16 6 46 30 46 56 0 28-22 50-46 50zM130 132h-58c-10 0-22 18-22 32l2 496c0 16 12 34 24 34h56c6 0 16-10 22-22v-516c-6-12-16-24-24-24zM958 308c-44-16-146-76-228-140-54-42-114-106-144-140-4-4-12-6-18-6v-2l-350 114c-2 2-10 10-14 24v504c4 16 14 26 20 28l342 100c8 0 16-4 22-8 6-6 12-12 20-22 26-28 66-68 118-114 124-92 198-142 236-158 2 0 4-4 8-6l-276 4c-24 30-56 52-92 60-68 16-136-10-172-66-34-52-34-118-2-170 20-32 50-56 86-68 68-24 148 10 186 74l266-2c-4-4-8-6-8-6z" />
<glyph unicode="&#x73;" glyph-name="icon-search" data-tags="icon-search" d="M1000 14l-256 256c-16 18-40 26-60 26-12 0-24-2-34-8l-46 46c50 60 80 136 80 218 0 188-154 342-344 342-188 0-340-154-340-340 0-188 152-342 340-342 84 0 160 30 220 78l44-44c-14-30-8-68 18-94l256-256c16-16 40-24 62-24 20 0 44 8 60 24 32 32 32 86 0 118zM64 554c0 152 124 278 278 278s278-126 278-278c0-154-124-280-278-280s-278 126-278 280zM954-60c-6-6-12-6-14-6-4 0-12 0-16 6l-256 256c-8 8-8 22 0 32 6 6 12 6 16 6 2 0 10-2 14-6l256-256c8-10 8-24 0-32z" />
<glyph unicode="&#x74;" glyph-name="icon-twitter" data-tags="icon-twitter" d="M42 530c0-96 72-184 168-206-18-4-36-8-56-8h-6c-16 2-26-14-20-30 34-72 104-122 184-122-72-62-164-98-262-98-16 0-34 2-50 4 94-64 204-102 322-102 386 0 598 344 598 644v28c40 34 76 72 104 118-38-18-78-30-120-36 44 28 76 72 92 126-40-26-86-44-134-56-38 44-92 72-152 72-116 0-210-102-210-226 0-18 2-36 4-52-156 8-298 82-400 198-16 18-46 10-52-14-6-20-8-40-8-62 0-78 36-148 92-188-34 2-54 6-68 16-2 2-22 16-26-6z" />
<glyph unicode="&#x75;" glyph-name="icon-refresh" data-tags="icon-refresh" horiz-adv-x="1026" d="M1012 464c-14 10-34 8-44-8l-72-100c-8 92-44 180-104 250-82 96-200 154-326 158-248 10-454-184-464-430-4-118 38-232 120-320 80-86 192-138 310-142h18c172 0 330 100 404 258 8 16 0 36-16 42-16 8-34 2-42-14-66-140-208-228-362-222-102 4-196 46-266 122-70 74-106 172-102 274 8 212 186 376 398 368 108-4 210-52 280-136 54-62 84-138 90-222l-92 116c-10 14-30 18-44 6-14-10-16-30-6-46l146-184c6-8 16-12 26-12s20 4 26 12l130 186c10 14 6 34-8 44z" />
<glyph unicode="&#x76;" glyph-name="icon-download-admin" data-tags="icon-download-admin" d="M994-66h-964c-16 0-30-14-30-30 0-18 14-32 30-32h964c16 0 30 14 30 32 0 16-14 30-30 30zM506 88c4-2 8-4 10-6h2c2-2 6-4 12-4 4 0 8 2 12 4s8 4 10 6l292 308c12 14 12 32 0 44s-32 12-44 0l-238-254v662c0 18-14 32-32 32-16 0-30-14-30-32v-662l-240 254c-12 12-32 12-44 2-12-12-12-32 0-44l290-310z" />
<glyph unicode="&#x77;" glyph-name="icon-wishlist" data-tags="icon-wishlist" d="M992 960h-960c-18 0-32-14-32-32s14-32 32-32h142v-928c0-12 8-24 20-30 12-4 26-2 36 6l282 264 284-264c6-4 14-8 22-8 4 0 8 2 12 2 12 6 20 18 20 30v930h142c18 0 32 14 32 30 0 18-14 32-32 32zM784 42l-250 234c-12 12-32 12-44 0l-252-234v856h546v-856z" />
<glyph unicode="&#x78;" glyph-name="icon-cross" data-tags="icon-cross" horiz-adv-x="1028" d="M558 448l460 460c12 12 12 32 0 44s-32 12-44 0l-460-460-460 458c-12 12-32 12-44 0-12-10-12-30 0-42l460-460-458-460c-12-12-12-32 0-44 6-6 14-8 20-8 8 0 16 2 22 8l460 460 460-460c6-6 14-8 22-8 6 0 16 2 20 8 12 12 12 32 0 44l-458 460z" />
<glyph unicode="&#x79;" glyph-name="icon-facebook-box" data-tags="icon-facebook-box" d="M830 960h-830v-1024h506v376h-128v162h130v118s-4 66 50 118c58 54 112 54 112 54h160v-160h-122s-40 8-40-42v-86h160v-164h-160v-376h356v1024h-194z" />
<glyph unicode="&#x7a;" glyph-name="icon-up-arrow" data-tags="icon-up-arrow" horiz-adv-x="1026" d="M0 128c0 8 4 16 10 22l480 470c12 12 32 12 44 0l480-470c14-12 14-32 2-44s-32-12-44 0l-460 448-460-448c-12-12-32-12-44 0-6 6-8 14-8 22z" />
<glyph unicode="&#x7b;" glyph-name="icon-volume-down" data-tags="icon-volume-down" horiz-adv-x="940" d="M460 908l-170-214h-172c-70 0-118-68-118-138v-246c0-70 48-128 118-128h172l170-214h96v940h-96zM256 268h-138c-22 0-32 18-32 42v246c0 22 10 52 32 52h138v-340zM470 96l-170 172v340l170 172v-684zM684 480h256v-84h-256v84z" />
<glyph unicode="&#x7c;" glyph-name="icon-info" data-tags="icon-info" d="M512 896c-282 0-512-230-512-512s230-512 512-512 512 230 512 512-230 512-512 512zM512-66c-248 0-450 202-450 450s202 450 450 450 450-202 450-450-202-450-450-450zM578 622c0-36-30-66-66-66s-66 30-66 66 30 66 66 66 66-30 66-66zM512 468c-28 0-50-24-50-50v-332c0-28 22-50 50-50s50 22 50 50v332c0 26-22 50-50 50z" />
<glyph unicode="&#x7d;" glyph-name="icon-volume-up" data-tags="icon-volume-up" horiz-adv-x="940" d="M460 892l-170-214h-172c-70 0-118-68-118-138v-246c0-70 48-128 118-128h172l170-214h96v940h-96zM256 252h-138c-22 0-32 18-32 42v246c0 22 10 52 32 52h138v-340zM470 80l-170 172v340l170 172v-684zM940 464h-86v86h-86v-86h-84v-84h84v-86h86v86h86v84z" />
<glyph unicode="&#x7e;" glyph-name="icon-settings" data-tags="icon-settings" d="M594-64h-164c-18 0-32 14-32 30v116c-4 2-8 2-12 4-16 6-36 12-54 22l-80-82c-12-12-30-12-44 0l-118 118c-6 6-8 14-8 22s2 16 8 22l82 80c-14 32-24 70-30 100h-112c-16 0-30 14-30 30v132c0 18 14 32 30 32h116c2 4 2 8 4 12 6 16 12 36 22 54l-82 80c-12 12-12 30 0 44l118 118c12 12 32 12 44 0l80-82c18 10 38 16 54 22 4 2 8 2 12 4v116c0 16 14 30 32 30h164c18 0 32-14 32-30v-116c4-2 8-2 12-4 16-6 36-12 54-22l80 82c12 12 30 12 44 0l118-118c6-6 8-14 8-22s-2-16-8-22l-82-80c6-16 12-32 16-48 2-6 4-12 4-18h122c16 0 30-14 30-30v-134c0-16-14-30-30-30h-110c-6-52-18-78-30-100l80-80c12-10 12-30 0-42l-118-118c-12-12-32-12-44 0l-80 80c-18-10-38-16-54-22-4-2-8-2-12-4v-116c0-16-14-30-32-30zM460-2h104v104c0 12 6 22 16 28 8 4 22 8 36 14 22 8 48 16 64 26 14 8 28 6 38-4l76-74 74 74-74 76c-10 10-12 24-6 38 20 30 30 48 38 122 2 14 16 28 32 28h104v70h-96c-4-2-8-2-10-2-28 0-36 24-48 64-4 18-12 44-18 56-8 12-6 28 4 38l74 74-74 74-76-74c-10-10-24-12-38-6-16 12-42 20-64 28-14 6-28 10-36 14-10 6-16 16-16 28v104h-104v-104c0-12-6-22-16-28-8-4-22-8-36-14-22-8-48-16-64-26-14-8-28-6-38 4l-76 74-74-74 74-76c10-10 12-24 6-38-10-16-20-42-28-64-6-14-10-28-14-36-6-10-16-16-28-16h-104v-70h104c16 0 28-12 30-26 10-56 24-102 38-124 8-12 6-28-4-38l-74-74 74-76 76 74c10 10 24 12 38 6 16-12 42-20 64-28 14-6 28-10 36-14 10-6 16-16 16-28v-104zM512 234c-118 0-212 96-212 214s94 212 212 212 214-94 214-212-96-214-214-214zM512 600c-84 0-152-68-152-152s68-152 152-152 152 68 152 152-68 152-152 152z" />
<glyph unicode="&#x81;" glyph-name="icon-location-select" data-tags="icon-location-select" horiz-adv-x="2048" d="M1058.134 1920c-396.288 0-716.8-320.512-716.8-716.8 0-537.6 716.8-1331.2 716.8-1331.2s716.8 793.6 716.8 1331.2c0 396.288-320.512 716.8-716.8 716.8zM1058.134 947.2c-141.312 0-256 114.688-256 256s114.688 256 256 256 256-114.688 256-256-114.688-256-256-256z" />
<glyph unicode="&#xa1;" glyph-name="icon-empty-bookmarks" data-tags="icon-empty-bookmarks" horiz-adv-x="968" d="M412 504c0-20-18-36-38-36-22 0-38 16-38 36 0 22 16 38 38 38 20 0 38-16 38-38zM640 504c0-20-18-36-38-36-22 0-38 16-38 36 0 22 16 38 38 38 20 0 38-16 38-38zM408 338c88 54 154 4 156 2 6-6 16-4 20 2 6 6 4 14-2 20 0 0-22 16-54 24-12 2-24 4-38 4-28 0-60-6-96-28-8-4-10-12-6-20 4-6 14-8 20-4zM968 890h-968v-48h136c-2-4-2-10-2-16v-890c0-34 28-64 64-64 16 0 32 6 44 18l232 278c6 4 14 4 20 0l232-276 2-2c12-12 26-18 42-18 36 0 64 30 64 64v890c0 6 0 10-2 16h136v48zM788 826v-890c0-12-10-16-18-16-2 0-6 0-10 4l-230 274-2 2c-12 12-28 18-44 18s-32-6-44-18l-232-276c-4-2-6-4-10-4-8 0-18 6-18 18v888c0 8 8 16 18 16h130v-136h48v136h218v-136h46v136h130c10 0 18-8 18-16z" />
<glyph unicode="&#xa7;" glyph-name="icon-envelope" data-tags="icon-envelope" d="M872 808h-720c-90 0-152-64-152-152v-630c0-88 64-154 148-154h722c86 0 154 68 154 154v630c0 88-62 152-152 152zM872 744c16 0 30-4 42-8l-378-458-424 458c12 6 26 8 42 8h718zM960 24c0-50-38-88-90-88h-722c-48 0-84 36-84 88v630c0 12 2 24 4 34l446-480c6-8 14-12 22-12h2c8 0 18 6 24 12l394 476c2-8 6-18 6-30v-630h-2z" />
<glyph unicode="&#xac;" glyph-name="icon-empty-review" data-tags="icon-empty-review" d="M982 658c-2 8-8 14-16 14h-278c-50 0-92-30-110-76l-56-142c-4-10-14-18-28-18h-32v6c-2 20-28 38-58 38h-70c-28 0-56-22-62-50l-8-32v-2c-6-76-6-156 0-236v-2l8-32c0-2 2-6 2-8-2-12-4-30-4-44 2-16 2-30 14-32h2c20 0 30 10 30 34 0 2 0 6-2 8 6-2 12-2 18-2 20 2 50 2 70 0h8c26 0 48 14 50 34v6h34c12 0 22-8 26-18l54-142c20-46 62-76 110-76h270c12 0 24 8 28 20 26 112 40 242 40 374 4 134-10 266-40 378zM952-80h-264c-34 0-64 22-76 52l-56 142c-12 26-34 42-60 42h-58s-2 0-2-2c-2 0-2-2-4-2l-4-4c0-2 0-2-2-4v-2l-2-22c-2-2-8-6-18-4-22 2-54 2-76 0-10-2-22 8-26 20l-8 30c-6 76-6 150 0 226l8 32c2 12 16 22 30 22h68c12 0 22-6 24-6l2-22v-2c0-2 0-2 2-4l6-6c2 0 2-2 4-2h56c26 0 50 16 60 40l56 142c14 32 44 52 78 52h262c26-108 40-232 40-360s-16-250-40-358zM318-58c-230 0-230-30-230-42 0-8 6-18 16-18 0 0 100-10 216-10s212 10 214 10c8 0 18 10 18 18-4 12-4 42-234 42zM28-90c-14 0-28-8-28-18 0-4 0-6 2-6 0 0 14-6 26-6 14 0 24 6 24 6 2 0 2 2 2 6 2 10-10 18-26 18zM748 366c0-12-10-22-22-22-14 0-24 10-24 22 0 14 10 24 24 24 12 0 22-10 22-24zM748 178c0-14-10-24-22-24-14 0-24 10-24 24 0 12 10 22 24 22 12 0 22-10 22-22zM840 342c-4 2-8-2-10-6 0 0-6-28-6-72s6-70 6-70c2-4 4-6 8-6h2c4 0 6 4 6 8 0 0-6 26-6 68 0 44 6 68 6 70 0 4-2 8-6 8z" />
<glyph unicode="&#xb0;" glyph-name="icon-apple-icon" data-tags="icon-apple-icon" horiz-adv-x="880" d="M880 208c-26-52-36-76-68-124-42-66-102-146-178-148-68 0-84 44-176 44-90 0-108-44-176-44-76 2-134 76-176 140-120 186-134 400-58 516 52 80 136 128 214 128 80 0 130-44 196-44 64 0 104 44 196 44 70 0 144-38 196-104-174-94-146-342 30-408zM426 714c-12 60 16 120 50 162 38 46 102 80 156 84 10-62-16-122-48-166-36-46-98-82-158-80z" />
<glyph unicode="&#xb1;" glyph-name="icon-android-icon" data-tags="icon-android-icon" horiz-adv-x="876" d="M814 640c-34 0-64-28-64-64v-248c0-34 28-62 64-62 34 0 62 28 62 62v248c0 34-28 64-62 64zM62 640c-34 0-62-28-62-64v-248c0-34 28-62 62-62 36 0 64 28 64 62v248c-2 34-30 64-64 64zM162 638v-452c0-26 22-48 50-48h54v-138c0-36 28-64 62-64 36 0 62 28 62 64v138h98v-138c0-36 28-64 62-64s62 28 62 64v138h56c26 0 48 20 48 48v452h-554zM570 872l50 74c4 4 2 10-2 12s-8 2-12-2l-54-78c-34 14-74 22-114 22-42 0-80-8-114-22l-54 78c-4 4-8 6-12 2-4-2-6-8-2-12l50-74c-80-38-138-110-146-194h556c-8 84-66 156-146 194zM322 754c-18 0-32 14-32 30 0 18 14 32 32 32 16 0 30-14 30-32 0-16-14-30-30-30zM558 754c-16 0-30 14-30 30 0 18 14 32 30 32 18 0 32-14 32-32 0-16-14-30-32-30z" />
<glyph unicode="&#xb6;" glyph-name="icon-facebook" data-tags="icon-facebook" horiz-adv-x="474" d="M314 628v106c0 40 26 50 46 50h72c22 0 42 18 42 40v94c0 24-20 42-42 42h-116c-176 0-214-132-214-214v-118h-60c-24 0-42-18-42-40v-100c0-22 18-40 42-40h60v-472c0-22 18-40 40-40h130c24 0 42 18 42 40v472h106c22 0 38 16 40 36l12 100c2 24-18 44-42 44h-116z" />
<glyph unicode="&#xba;" glyph-name="icon-eye-views" data-tags="icon-eye-views" d="M512-16c-242 0-452 164-510 400l-2 8 2 6c58 238 268 402 510 402s452-164 510-400l2-8-2-6c-58-238-268-402-510-402zM62 392c54-206 238-348 450-348s396 142 450 348c-54 204-238 346-450 346s-396-142-450-346zM512 162c-128 0-230 102-230 230s102 232 230 232 230-104 230-232-104-230-230-230zM512 562c-94 0-170-78-170-170 0-94 76-170 170-170s170 76 170 170c0 92-76 170-170 170z" />
<glyph unicode="&#xcb;" glyph-name="icon-trash" data-tags="icon-trash" horiz-adv-x="992" d="M960 812h-268v102c0 16-12 30-30 30h-332c-18 0-30-14-30-30v-102h-268c-18 0-32-14-32-32 0-16 14-30 32-30h102v-800c0-16 14-30 30-30h664c16 0 30 14 30 30v800h102c18 0 32 14 32 30 0 18-14 32-32 32zM360 882h270v-70h-270v70zM798-18h-604v768h602v-768h2zM330 628c-18 0-30-14-30-30v-466c0-16 12-30 30-30 16 0 30 14 30 30v466c0 16-12 30-30 30zM496 628c-16 0-30-14-30-30v-466c0-16 14-30 30-30 18 0 30 14 30 30v466c0 16-12 30-30 30zM632 598v-466c0-16 14-30 30-30 18 0 30 14 30 30v466c0 16-12 30-30 30-16 0-30-14-30-30z" />
<glyph unicode="&#xdf;" glyph-name="icon-share" data-tags="icon-share" d="M1014 578l-198 208c-8 6-22 8-32 4-10-6-18-16-18-28v-84c-408-22-422-510-422-514-2-16 10-30 26-32h4c14 0 26 10 28 24 2 2 66 258 362 276v-76c0-12 8-22 18-28 12-4 24-2 34 6l196 198c6 4 10 14 10 22 2 10-2 20-8 24zM806 276c-18 0-32-14-32-32v-230h-712v538h318c16 0 30 14 30 30 0 18-14 32-30 32h-350c-16 0-30-14-30-32v-598c0-18 14-32 30-32h776c16 0 30 14 30 32v260c0 18-14 32-30 32z" />
<glyph unicode="&#xe1;" glyph-name="icon-empty-photo" data-tags="icon-empty-photo" d="M1024-74c0 24-18 46-42 50l-2 498c24 4 44 26 44 50v2c0 28-24 50-52 50h-110v46c0 16-14 30-34 30l-142-2c-20 0-34-14-34-30v-44h-110c-14 0-26-6-36-16s-14-22-14-36c0-26 18-46 42-52v-32h-484c-14 0-26-4-36-14-8-8-14-22-14-34v-178c0-20 16-34 34-34h134c48 0 86-40 86-88v-50c0-20 18-38 38-38h242v-28c-10-2-20-8-28-16-10-8-14-22-14-36 0-28 22-52 50-52h430c14 0 28 6 36 16 10 10 16 22 16 36v2zM686 620h142c2 0 4 0 4-2v-42h-150v42c0 2 2 2 4 2zM292 36v0c-4 0-6 4-6 6v50c0 66-54 118-118 118h-134c-2 0-2 2-2 4v178c0 4 2 8 4 12 4 4 10 6 14 6h482v-374h-240zM522 524c0 6 2 12 6 16 4 2 8 6 14 6h430c12 0 20-10 20-22s-8-20-20-20h-430c-12 0-20 8-20 20zM564 268v204h386v-496h-386v292zM986-90c-4-4-8-6-14-6h-430c-12 0-20 8-20 20 0 6 2 12 6 14 4 4 8 8 14 8h430c12 0 20-10 20-22 0-6-2-10-6-14zM78 390c-12 0-22-10-22-22v-10c0-12 10-24 22-24s22 12 22 24v10c0 12-10 22-22 22zM146 390c-12 0-22-10-22-22v-10c0-12 10-24 22-24s22 12 22 24v10c0 12-10 22-22 22zM214 390c-12 0-22-10-22-22v-10c0-12 10-24 22-24s22 12 22 24v10c0 12-10 22-22 22zM282 390c-12 0-22-10-22-22v-10c0-12 10-24 22-24s22 12 22 24v10c0 12-10 22-22 22zM350 336c14 0 24 10 24 22v10c0 12-10 22-24 22-12 0-22-10-22-22v-10c0-12 10-22 22-22zM418 336c14 0 24 10 24 22v10c0 12-10 22-24 22-12 0-22-10-22-22v-10c0-12 10-22 22-22zM488 336c12 0 22 10 22 22v10c0 12-10 22-22 22s-24-10-24-22v-10c0-12 10-22 24-22zM350 112c-12 0-22-10-22-22v-10c0-12 10-22 22-22 14 0 24 10 24 22v10c0 12-10 22-24 22zM420 112c-12 0-24-10-24-22v-10c0-12 12-22 24-22s22 10 22 22v10c0 12-10 22-22 22zM492 112c-12 0-22-10-22-22v-10c0-12 10-22 22-22s22 10 22 22v10c0 12-10 22-22 22zM868 274c0-12-10-20-22-20s-20 8-20 20 8 22 20 22 22-10 22-22zM692 274c0-12-8-20-20-20s-22 8-22 20 10 22 22 22 20-10 20-22zM678 168c2-6 8-10 16-10 0 0 22 6 62 6 38 0 60-6 60-6h4c6 0 10 4 12 10 2 8-4 14-10 16 0 0-26 4-66 4-42 0-66-4-68-4-8-2-12-8-10-16z" />
<glyph unicode="&#xe8;" glyph-name="icon-rating-4-2" data-tags="icon-rating-4-2" horiz-adv-x="1022" d="M796 628h-570c-126 0-226-100-226-226v-224c0-124 100-226 226-226h570c124 0 226 102 226 226v224c0 126-102 226-226 226zM436 192h-38v-64h-66v64h-148v50l122 194h92v-188h38v-56zM508 122c-20 0-38 18-38 38s18 38 38 38 38-18 38-38-18-38-38-38zM710 122c-54 0-94 18-120 46l36 46c22-22 50-34 84-34 36 0 56 22 56 46 0 28-20 46-54 46-26 0-48-8-66-24l-46 12v176h212v-58h-146v-74c16 14 40 26 68 26 52 0 100-38 100-102-2-64-50-106-124-106zM332 248v130l-84-130h84z" />
<glyph unicode="&#xe9;" glyph-name="icon-rating-5-1" data-tags="icon-rating-5-1" horiz-adv-x="1022" d="M796 612h-570c-126 0-226-102-226-226v-224c0-124 100-226 226-226h570c124 0 226 100 226 226v224c0 124-102 226-226 226zM314 104c-54 0-94 18-120 48l38 46c20-22 48-34 82-34 36 0 58 20 58 46s-22 46-56 46c-26 0-48-8-66-26l-46 12v178h212v-58h-146v-76c14 14 40 26 68 26 52 0 98-38 98-100 0-66-48-108-122-108zM512 106c-20 0-36 16-36 36 0 22 16 38 36 38 22 0 38-18 38-38s-16-36-38-36zM706 104c-88 0-128 80-128 160s40 160 128 160 128-80 128-160-40-160-128-160zM706 366c-44 0-62-44-62-102 0-56 18-102 62-102s60 46 60 102c0 58-16 102-60 102z" />
<glyph unicode="&#xf1;" glyph-name="icon-verified-star-fill" data-tags="icon-verified-star-fill" horiz-adv-x="1020" d="M510 960c-24-2-34-14-40-24-8-8-10-16-12-26l-84-300c0-2-4-6-8-10-6-6-12-8-14-8h-288c-10 0-20 0-34-6-6-2-14-6-20-14s-10-20-10-30c0-16 8-26 14-34s12-12 20-16l230-154c4-2 12-14 12-24 0-2 0-4-2-4l-92-296c-2-8-4-16-4-26 0-8 2-20 10-32s24-18 38-18h2c24 0 32 10 44 18l226 194c2 2 8 4 12 4 6 0 10-2 12-4l238-196c12-8 22-16 44-18h2c12 0 28 6 36 20 10 12 10 22 12 32 0 10-4 18-6 28l-100 296c-2 0-2 4-2 4 0 8 6 20 10 22l230 152c8 6 14 10 20 18 6 6 14 18 14 34 0 12-4 22-10 30-12 12-22 16-30 18s-16 2-24 2h-288c-2 0-8 2-14 6-4 4-8 10-8 12l-84 300c-2 10-6 18-12 26-6 10-16 22-40 24z" />
<glyph unicode="&#xf2;" glyph-name="icon-rating-1-3" data-tags="icon-rating-1-3" horiz-adv-x="1022" d="M794 628h-568c-126 0-226-102-226-226v-224c0-124 100-226 226-226h570c124 0 226 100 226 226v224c-2 124-102 226-228 226zM376 126h-66v224l-50-52-38 40 98 98h58v-310h-2zM466 122c-20 0-36 16-36 36s16 38 36 38c22 0 38-18 38-38s-16-36-38-36zM660 120c-88 0-128 80-128 160s40 160 128 160 128-80 128-160-40-160-128-160zM660 382c-44 0-62-44-62-102 0-56 18-102 62-102s60 46 60 102c0 58-16 102-60 102z" />
<glyph unicode="&#xf3;" glyph-name="icon-rating-1-2" data-tags="icon-rating-1-2" horiz-adv-x="1022" d="M794 756h-568c-126 0-226-102-226-226v-224c0-124 100-226 226-226h570c124 0 226 100 226 226v224c-2 124-102 226-228 226zM374 254h-66v224l-50-52-38 40 98 98h58v-310h-2zM464 250c-20 0-36 16-36 36s16 38 36 38 38-18 38-38-18-36-38-36zM666 248c-54 0-94 18-120 48l38 46c20-22 48-34 82-34 36 0 58 20 58 46s-22 46-56 46c-26 0-48-8-66-26l-46 12v178h212v-58h-146v-76c16 14 40 26 68 26 52 0 100-38 100-100 0-66-50-108-124-108z" />
<glyph unicode="&#xf4;" glyph-name="icon-rating-2" data-tags="icon-rating-2" horiz-adv-x="1022" d="M704 382c-44 0-62-44-62-102 0-56 18-102 62-102s60 46 60 102c0 58-16 102-60 102zM794 628h-568c-126 0-226-102-226-226v-224c0-124 100-226 226-226h570c124 0 226 100 226 226v224c-2 124-102 226-228 226zM428 126h-234v52c128 94 164 126 164 164 0 26-24 40-50 40-36 0-62-14-82-36l-38 44c30 34 76 50 120 50 66 0 118-38 118-98 0-54-44-100-124-158h126v-58zM510 122c-20 0-38 16-38 36s18 38 38 38 38-18 38-38-18-36-38-36zM704 120c-88 0-128 80-128 160s40 160 128 160 128-80 128-160-40-160-128-160z" />
<glyph unicode="&#xf5;" glyph-name="icon-rating-2-3" data-tags="icon-rating-2-3" horiz-adv-x="1022" d="M796 644h-570c-124 0-226-100-226-226v-224c0-124 102-226 226-226h570c124 0 226 102 226 226v224c0 126-102 226-226 226zM426 144h-232v50c126 94 162 126 162 164 0 26-24 40-50 40-34 0-62-14-82-36l-38 44c30 34 76 50 120 50 66 0 118-36 118-98 0-52-44-98-124-158h126v-56zM508 138c-20 0-36 18-36 38s18 38 36 38c22 0 38-18 38-38s-16-38-38-38zM710 138c-54 0-92 18-118 46l36 46c20-22 50-34 82-34 38 0 58 22 58 46 0 28-20 46-56 46-26 0-46-8-66-24l-46 12v176h214v-58h-148v-74c16 14 40 26 68 26 54 0 100-38 100-102 0-66-50-106-124-106z" />
<glyph unicode="&#xf6;" glyph-name="icon-rating-3" data-tags="icon-rating-3" horiz-adv-x="1022" d="M796 644h-570c-126 0-226-100-226-226v-224c0-124 100-226 226-226h570c124 0 226 102 226 226v224c0 126-102 226-226 226zM308 138c-58 0-100 22-122 50l34 44c22-24 54-36 86-36 36 0 58 16 58 40s-20 36-62 36c-14 0-34-2-40-2v60c6-2 28-2 40-2 34 0 56 10 56 34s-24 36-56 36c-30 0-58-12-80-32l-32 42c26 28 64 48 118 48 72 0 118-32 118-84 0-38-34-64-68-70 32-2 72-28 72-74 0-54-48-90-122-90zM508 138c-20 0-38 18-38 38s18 38 38 38 38-18 38-38-18-38-38-38zM702 138c-90 0-128 80-128 160s38 158 128 158c86 0 126-78 126-158s-40-160-126-160zM702 398c-46 0-62-44-62-100 0-58 16-102 62-102 42 0 60 44 60 102 0 56-18 100-60 100z" />
<glyph unicode="&#xf7;" glyph-name="icon-comment" data-tags="icon-comment" d="M64-64c-8 0-16 4-24 10-8 10-10 24-4 36l104 194c-90 80-140 184-140 288 0 234 230 424 512 424s512-190 512-424-230-424-512-424c-62 0-120 14-164 26l-272-126c-4-2-8-4-12-4zM512 826c-248 0-450-162-450-362 0-94 50-188 136-256 12-10 16-26 8-40l-72-134 198 94c6 4 16 4 22 2 42-14 98-28 158-28 248 0 450 162 450 362s-202 362-450 362z" />
<glyph unicode="&#xf8;" glyph-name="icon-rating-3-3" data-tags="icon-rating-3-3" d="M910 712h-796c-62 0-114-50-114-114v-532c0-64 52-114 114-114h796c62 0 114 50 114 114v532c0 64-52 114-114 114zM380 164c-24-24-52-36-88-36-34 0-62 10-84 30-22 18-36 44-40 76l70 8c2-18 8-32 18-40 10-10 20-14 34-14 16 0 28 6 38 16 10 12 16 26 16 46 0 18-6 32-14 44-10 10-22 14-36 14-10 0-20 0-32-4l6 58c20 0 36 4 46 14 10 8 14 20 14 34s-2 22-10 30-18 12-30 12-22-4-32-12c-8-10-14-22-16-38l-66 10c4 22 12 40 22 54 8 14 22 24 38 32s36 12 56 12c36 0 64-12 84-34 18-18 26-38 26-62 0-32-18-58-54-78 22-6 40-16 52-32s20-34 20-56c-2-34-14-62-38-84zM548 134h-72v72h72v-72zM832 178c-24-32-58-50-100-50-36 0-64 10-86 28s-34 44-38 74l70 8c2-16 10-30 18-38 12-10 22-14 36-14s28 6 38 18 14 30 14 54-4 40-14 52-24 18-40 18c-20 0-40-10-56-28l-58 8 36 196h190v-68h-134l-12-64c16 10 32 12 50 12 32 0 58-12 80-34 22-24 34-54 34-90 0-30-10-58-28-82z" />
<glyph unicode="&#xf9;" glyph-name="icon-rating-4-3" data-tags="icon-rating-4-3" horiz-adv-x="1022" d="M334 248v130l-84-130h84zM796 628h-570c-124 0-226-100-226-226v-224c0-124 102-226 226-226h570c126 0 226 102 226 226v224c0 126-100 226-226 226zM440 192h-40v-64h-66v64h-148v50l124 194h90v-188h40v-56zM510 122c-20 0-36 18-36 38s18 38 36 38c22 0 38-18 38-38s-16-38-38-38zM704 122c-88 0-128 80-128 160s40 158 128 158 128-78 128-158-40-160-128-160zM704 382c-44 0-62-44-62-100 0-58 18-102 62-102s60 44 60 102c0 56-16 100-60 100z" />
<glyph unicode="&#xfa;" glyph-name="icon-level-fill" data-tags="icon-level-fill" horiz-adv-x="1020" d="M958 896h-286c-34 0-62-28-62-60v-282l-244 2c-32 0-60-28-60-62v-280h-244c-34 0-62-28-62-62v-220c0-32 28-60 62-60h896c34 0 62 28 62 60v904c0 32-28 60-62 60z" />
<glyph unicode="&#xfb;" glyph-name="icon-follow-web" data-tags="icon-follow-web" d="M970 246h-122v122c0 28-22 52-50 52-30 0-52-24-52-52v-122h-122c-28 0-52-24-52-52s24-50 52-50h122v-122c0-28 24-52 52-52s50 22 50 52v122h124c28 0 50 24 50 52 2 28-22 50-52 50zM554 336v68c20 16 54 58 60 130 6 6 12 14 18 22 6 12 8 28 8 46 0 24-6 44-18 58 10 28 26 76 14 124-16 64-104 86-174 86-60 0-132-16-162-60-28 0-46-12-56-22-32-34-18-92-8-128-4-4-6-10-10-14-6-14-10-30-10-46 0-28 10-52 28-66 6-78 48-126 70-146v-50c-24-10-52-18-78-26-108-36-194-64-212-120-22-68-24-186-24-190 0-10 4-18 10-24 6-4 14-10 24-10h590v64l-558 2c2 40 8 102 20 138 8 24 106 56 170 78 36 10 70 22 102 34 12 6 22 18 22 30v88c0 10-6 20-14 26 0 2-58 40-58 128 0 14-10 26-24 30-2 6-2 20 0 26 6 2 10 4 14 8 6 6 10 14 10 22s-2 14-6 26c-16 58-12 72-10 74s8 2 20 0 34 8 38 24c6 18 48 38 112 38s106-20 112-38c8-32-8-72-16-92-4-12-8-20-8-28 0-16 10-28 24-32 2-8 2-22 0-30-14-2-24-16-24-30 0-82-42-106-44-108-10-4-16-16-16-28v-104c0-14 8-26 20-30 4-2 8-4 14-6 14-4 28 6 28 20l2 38z" />
<glyph unicode="&#xfc;" glyph-name="icon-followed-1" data-tags="icon-followed-1" d="M1004 372c-24 18-58 14-76-10l-160-212-80 70c-22 22-54 20-74-2-22-20-20-54 2-74l126-116c22-20 54-18 70 4l202 266c16 24 12 58-10 74zM552 366v68c20 18 54 56 60 130 6 6 12 12 16 22 8 12 10 28 10 44 0 26-6 46-18 60 10 28 26 74 14 122-16 64-104 88-174 88-60 0-132-16-162-60-28 0-44-12-54-22-32-34-18-92-8-128-4-6-8-10-10-16-8-12-10-28-10-44 0-30 10-52 26-66 6-78 48-126 72-148v-48c-26-10-52-18-78-26-108-36-194-64-212-120-22-66-24-186-24-190 0-8 4-16 10-22s14-10 22-10h590v64h-558c4 42 8 102 20 138 8 26 106 58 170 80 34 10 70 22 102 34 14 4 22 16 22 30v86c0 12-6 22-14 28 0 0-58 40-58 126 0 14-10 28-24 30-2 8-2 20 0 26 6 2 10 4 14 8 6 6 10 14 10 24 0 6-2 12-6 24-16 58-12 72-8 76 0 0 6 2 20-2 16-2 32 8 38 24 4 18 48 38 110 38 64 0 106-20 112-38 8-32-8-72-16-92-4-12-8-20-8-28 0-16 10-28 24-32 4-6 4-20 0-28-14-4-24-16-24-30 0-82-42-108-42-108-12-4-18-16-18-28v-104c0-14 8-26 20-30 4-2 8-4 14-4 14-6 28 4 28 18l2 36z" />
<glyph unicode="&#x108;" glyph-name="icon-write-reviews" data-tags="icon-write-reviews" d="M577.8 511.566c26.73 0 57.574-26.73 71.968-45.236 4.112-4.114 8.224-6.17 12.336-6.17l339.278-4.112c12.336 0 22.618 8.226 22.618 22.62v2.054c0 12.34-20.562 14.394-30.844 20.564-43.18 16.448-150.104 92.53-238.52 160.384 0 0 0 2.056-2.058 2.056-69.912 59.632-119.26 115.15-141.88 139.824-12.336 12.338-28.786 18.506-45.236 14.394l-361.896-65.8c-18.506-2.056-30.844-24.674-39.066-45.236-4.114 24.672-24.676 49.35-49.352 49.35h-61.686c-26.732 2.056-49.35-32.9-51.406-59.632l-2.056-524.336c0-26.732 22.62-61.69 51.406-61.69h61.686c22.62 0 43.18 24.676 49.35 49.35 6.168-22.62 20.562-43.18 37.012-47.294l363.952-80.192c18.506-2.056 34.956 4.112 47.292 16.45 26.732 28.786 90.474 100.754 150.106 145.992 84.304 65.8 191.228 127.486 234.408 143.936 8.226 4.112 28.788 8.224 28.788 18.506v8.224c0 8.226-6.168 14.394-14.394 14.394l-345.446 4.114c-4.112 0-10.28-4.112-12.336-6.168-26.732-53.462-96.644-61.688-145.992-22.62-2.056 0-4.114 2.058-4.114 2.058-53.46 55.518-12.336 156.272 76.080 154.216z" />
<glyph unicode="&#x10e;" glyph-name="icon-copy" data-tags="icon-copy" horiz-adv-x="988" d="M978 482v2l-100 92c-6 6-14 8-20 8h-450c-16 0-30-14-30-30v-652c0-16 14-30 30-30h548c18 0 32 14 32 30v560c0 8-4 16-10 20zM926-66h-486v590h386v-62c0-8 4-16 10-22s12-10 22-10h68v-496zM62 834h392v-44c0-16 14-30 30-30h64v-98h62v128c0 10-4 18-12 24l-94 76-2-2c-4 4-12 8-18 8h-452c-18 0-32-14-32-30v-654c0-16 14-30 32-30h266v62h-236v590zM818 416h-270c-18 0-32-14-32-32 0-16 14-30 32-30h270c16 0 30 14 30 30 0 18-14 32-30 32zM818 250h-270c-18 0-32-14-32-32 0-16 14-30 32-30h270c16 0 30 14 30 30 0 18-14 32-30 32zM818 84h-270c-18 0-32-14-32-32 0-16 14-30 32-30h270c16 0 30 14 30 30 0 18-14 32-30 32zM178 738c-16 0-30-14-30-30 0-18 14-32 30-32h272c16 0 30 14 30 32 0 16-14 30-30 30h-272zM284 586h-106c-16 0-30-14-30-32 0-16 14-30 30-30h106c16 0 30 14 30 30 0 18-14 32-30 32zM284 420h-106c-16 0-30-14-30-32 0-16 14-30 30-30h106c16 0 30 14 30 30 0 18-14 32-30 32z" />
<glyph unicode="&#x10f;" glyph-name="icon-paste" data-tags="icon-paste" d="M1022 260v6c-2 2-2 4-4 4 0 2 0 4-2 4l-102 118c0 2-2 2-2 2s-2 2-4 2c0 2-2 2-4 4-2 0-4 0-4 2h-404c-18 0-30-14-30-30v-470c0-18 12-30 30-30h498c16 0 30 12 30 30v352c0 2 0 4-2 6zM922 292l6-8h-6v8zM964-68h-440v410h338v-86c0-18 14-30 30-30l72-2v-292zM860 168h-230c-18 0-30-14-30-30 0-18 12-30 30-30h230c16 0 30 12 30 30 0 16-14 30-30 30zM860 60h-230c-18 0-30-14-30-30s12-30 30-30h230c16 0 30 14 30 30s-14 30-30 30zM60 582h138v-58c0-16 12-28 30-28h364c16 0 30 12 30 28v58h138v-118h60v148c0 16-14 30-30 30h-168v44c0 16-14 30-30 30h-60c0 8 2 16 2 24 0 68-56 124-124 124-70 0-124-56-124-124 0-8 0-16 2-24h-60c-16 0-30-14-30-30v-44h-168c-16 0-30-14-30-30v-600c0-16 14-30 30-30h356v60h-326v540zM258 656h74c12 0 22 6 28 16 4 10 4 22-2 30-8 12-12 24-12 38 0 36 28 64 64 64s66-28 66-64c0-14-4-26-12-38-6-8-8-20-2-30 4-10 16-16 26-16h76v-102h-306v102zM438 740c0-16-12-28-28-28s-28 12-28 28 12 28 28 28 28-12 28-28z" />
<glyph unicode="&#x143;" glyph-name="icon-wishlist-fill" data-tags="icon-wishlist-fill" d="M992 960h-960c-18 0-32-14-32-32s14-32 32-32h142v-928c0-12 8-24 20-30 12-4 26-2 34 6l284 264 284-264c6-4 14-8 22-8 4 0 8 2 12 2 12 6 20 18 20 30v930h142c18 0 32 14 32 30 0 18-14 32-32 32z" />
<glyph unicode="&#x167;" glyph-name="icon-link-external-site" data-tags="icon-link-external-site" d="M994 330c-18 0-32-14-32-30v-366h-900v900h366c16 0 30 14 30 32 0 16-14 30-30 30h-398c-16 0-30-14-30-30v-964c0-16 14-30 30-30h964c16 0 30 14 30 30v398c0 16-14 30-30 30zM1024 868c0 2-2 6-2 8-4 8-10 14-16 16-4 2-8 4-12 4h-350c-16 0-30-14-30-30 0-18 14-32 30-32h276l-364-362c-12-12-12-32 0-44 6-6 14-8 22-8s16 2 22 8l362 364v-276c0-16 14-30 32-30 16 0 30 14 30 30v352z" />
<glyph unicode="&#x1d3;" glyph-name="icon-events-1" data-tags="icon-events-1" horiz-adv-x="1022" d="M320 672h8c12 0 26 10 30 24l32 142c4 16-6 34-22 36-16 4-34-6-38-22l-32-142c-4-16 6-34 22-38zM746 672h8c12 0 26 10 30 24l32 142c4 16-6 34-22 36-16 4-34-6-38-22l-32-142c-4-16 6-34 22-38zM446 724h212c16 0 30 14 30 30 0 18-14 32-30 32h-212c-18 0-32-14-32-32 0-16 14-30 32-30zM406 430c-32 0-64-10-92-28l14-30c14 10 28 14 36 18 10 2 20 4 30 4 16 0 26-4 32-10s8-14 4-26c-6-28-30-44-72-44h-24l-8-34h22c24 0 42-4 52-10 8-8 12-18 8-32-2-16-10-28-22-36-12-6-28-10-50-10-12 0-22 2-34 4-12 4-24 8-34 12l-8-36c18-10 42-16 72-16 32 0 60 8 80 22 22 14 36 34 42 60 4 16 2 30-6 42-10 10-24 16-44 20 20 6 34 12 46 24 12 10 22 24 26 42 4 20 0 36-12 46-12 12-32 18-58 18zM530 364l14-26c28 18 44 28 50 32 4 4 8 8 12 10-4-12-8-28-14-48l-38-172h42l60 266h-36l-90-62zM1022 760c0 2 0 4-2 4 0 4-2 6-2 8-2 0-2 2-2 2s0 2-2 2-4 4-6 4l-2 2c-4 2-10 4-14 4h-108c-16 0-30-14-30-32 0-16 14-30 30-30h74c-8-48-14-94-22-138h-758c6 46 12 90 18 138h48c16 0 30 14 30 30 0 18-14 32-30 32h-76c-16 0-28-12-30-28-32-280-74-496-136-700-4-8 0-20 4-26 6-8 16-14 26-14h78c0-2-2-4-2-6v-108c0-18 14-32 32-32h852c18 0 30 14 30 32v856zM168 526h758c-36-196-76-340-128-446h-724c38 136 70 280 94 446zM170-66v84h646c12 0 22 8 28 18 46 90 84 204 118 354v-456h-792z" />
<glyph unicode="&#x1dd;" glyph-name="icon-vegan-icon" data-tags="icon-vegan-icon" d="M896 960h-768c-70 0-128-58-128-128v-768c0-70 58-128 128-128h768c70 0 128 58 128 128v768c0 70-58 128-128 128zM960 64c0-36-28-64-64-64h-768c-36 0-64 28-64 64v768c0 36 28 64 64 64h768c36 0 64-28 64-64v-768zM512 640c-106 0-192-86-192-192s86-192 192-192 192 86 192 192-86 192-192 192z" />
<glyph unicode="&#x3c0;" glyph-name="icon-empty-food-journey" data-tags="icon-empty-food-journey" horiz-adv-x="1016" d="M1000 558h-32c0 2-6 10-24 6 0 4 0 6-4 8-124 42-274 40-420-2v16c0 6-4 10-10 10s-12-6-12-10v-16c-134 42-284 44-420 2-2-2-4-4-4-8-12 2-22-2-22-4-2 0-4-2-4-4-2 2-4 2-6 2h-26c-8 0-16-6-16-16v-638c0-10 8-16 16-16h422l28-14c2 0 6-2 8-2h72c2 0 4 2 6 2l28 14h420c8 0 16 6 16 16v638c0 10-8 16-16 16zM956 552v-610c-4 2-8 2-12 4v604c8 2 10 2 12 2zM502 554c2-2 4-2 8-2 2 0 4 0 6 2 144 46 292 48 416 6v-610c-120 28-278 24-420-10 0 0-2 0-2-2h-2c-2 0-2 2-4 2-140 34-296 34-418 6v614c136 42 282 40 416-6zM60 550c4 2 10 2 14 0v-608c-2 0-6-2-12-2h-2v610zM450-82c-2 0-6 2-8 2h-410v608h16v-594c0-2 0-4 2-6 0 0 2-2 4 0h10c6 0 12 2 18 2 118 30 272 30 412-2v-24h-18l-26 14zM986-80h-410c-2 0-4-2-6-2l-28-14h-18v26c152 34 318 32 438-2 2-2 4 0 4 0 2 2 4 4 4 6v594h16v-608zM444 760c2-4 4-6 6-10l50-58h2c-2-2-4-4-4-8v-8c0-6 6-10 12-10s10 4 10 10v8c0 4 0 6-2 8l52 58c2 2 4 4 6 8l6 8c4 6 6 12 8 18 4 10 6 18 4 30 0 10-2 20-6 28l-2 6-70-66c0-2 0-2-2-2l-2 2-30 28c-2 2-4 4-4 6 0 4 2 6 4 6 2 2 4 2 6 2s4 0 6-2l20-20 62 62-2 4c-8 8-16 14-26 18-10 6-20 8-30 8h-8c-12 0-22-2-32-6s-20-10-26-18c-8-8-16-16-18-26-6-10-8-22-8-32s2-20 4-28c2-10 8-18 14-24zM458 864c14 14 32 20 52 20h6c16 0 34-8 46-20l-48-48-14 14c-4 4-8 6-14 6-4 0-8-2-12-4-4-4-6-10-6-14 0-6 2-10 6-14l32-30c2-2 6-4 8-4 4 0 8 2 10 4l58 58c2-6 4-12 4-18 0-8-2-18-4-26s-6-16-12-22v-2l-6-6-52-58-2-2s-2 0-2 2l-50 58c-4 2-6 6-8 8-4 6-8 14-10 20-4 8-4 16-4 26 0 18 8 36 22 52zM510 652c-6 0-12-6-12-10v-22c0-6 6-10 12-10s10 4 10 10v22c0 4-4 10-10 10zM510 496c6 0 10 6 10 12v20c0 6-4 12-10 12s-12-6-12-12v-20c0-6 6-12 12-12zM122 216h8c2 0 4 2 6 4 2-2 4-2 4-2l48-12c4 0 8 2 12 4v2c4 4 12 12 18 16 12 8 24 16 30 18h2c4 2 4 4 4 6 0 4-2 8-6 8h-46c-2 0-4-2-4-2-2-4-4-4-8-4-6 0-10 4-10 8 0 6 4 10 10 10 4 0 6 0 8-4v-2h4l44-2c2 0 4 2 6 2 2 2 2 4 4 6v2l-4 4c-2 2-2 2-4 2-6 2-18 8-30 18-8 6-14 12-18 16v2c-4 2-6 4-10 2l-48-8c-2 0-4-2-4-2-2 2-4 2-8 2h-8c-2 0-6-2-8-4s-4-6-4-8v-68c0-4 2-6 4-8 2-4 4-6 8-6zM142 230v70s2 0 2 2l46 8h2c0-2 2-2 2-2 4-4 10-10 16-18h2c8-6 18-12 24-16h-32l-6 6c-2 2-6 2-8 2-12 0-20-8-20-18s10-18 20-18c2 0 6 0 8 2s4 2 6 4h32c-6-4-16-8-24-14s-16-14-18-20h-4l-48 10v2zM120 298c0 2 2 4 2 4h8l2-2v-72l-2-2h-8s-2 2-2 4v68zM298 254c6 0 10 4 10 8 0 6-4 10-10 10h-18c-4 0-10-4-10-10 0-4 6-8 10-8h18zM396 254c6 0 10 4 10 8 0 6-4 10-10 10h-18c-4 0-8-4-8-10 0-4 4-8 8-8h18zM348 254c4 0 8 4 8 8 0 6-4 10-8 10h-18c-6 0-10-4-10-10 0-4 4-8 10-8h18zM418 262c0-4 4-8 10-8h18c4 0 8 4 8 8 0 6-4 10-8 10h-18c-6 0-10-4-10-10zM672 412h18c6 0 10 4 10 8 0 6-4 10-10 10h-18c-6 0-10-4-10-10 0-4 4-8 10-8zM720 412h18c6 0 10 4 10 8 0 6-4 10-10 10h-18c-4 0-8-4-8-10 0-4 4-8 8-8zM622 412h18c6 0 10 4 10 8 0 6-4 10-10 10h-18c-4 0-8-4-8-10 0-4 4-8 8-8zM574 412h18c4 0 10 4 10 10 0 4-6 8-10 8h-18c-6 0-10-4-10-8 0-6 4-10 10-10zM510 26c-6 0-12-4-12-10v-18c0-6 6-12 12-12s10 6 10 12v18c0 6-4 10-10 10zM510 76c-6 0-12-4-12-10v-18c0-6 6-10 12-10s10 4 10 10v18c0 6-4 10-10 10zM510-22c-6 0-12-6-12-12v-18c0-6 6-10 12-10s10 4 10 10v18c0 6-4 12-10 12zM184 410h228c8 0 14 6 14 14s-6 14-14 14h-228c-8 0-14-6-14-14s6-14 14-14zM592 262c0-6 6-12 14-12l228-2c8 0 14 6 14 14s-6 14-14 14h-228c-8 0-14-6-14-14zM412 124h-228c-8 0-14-6-14-14s6-14 14-14h228c8 0 14 6 14 14s-6 14-14 14zM574 100h18c4 0 10 6 10 10 0 6-6 10-10 10h-18c-6 0-10-4-10-10 0-4 4-10 10-10zM690 120h-18c-6 0-10-4-10-10 0-4 4-10 10-10h18c6 0 10 6 10 10-2 6-4 10-10 10zM738 120h-18c-4 0-8-4-8-10 0-4 4-10 8-10h18c6 0 10 6 10 10 0 6-4 10-10 10zM640 120h-18c-4 0-8-4-8-10 0-4 4-8 8-8h18c6 0 10 4 10 8 0 6-4 10-10 10zM830 132c-14 0-26-12-26-26 0-16 12-28 26-28 16 0 28 12 28 28 0 14-12 26-28 26zM830 90c-8 0-14 8-14 16s6 16 14 16c10 0 16-8 16-16 0-10-6-16-16-16zM780 150c-6 0-12-6-12-12v-68c0-6 6-12 12-12h100c8 0 14 6 14 12v66c0 8-6 14-14 14h-18l-4 8c-2 2-4 4-8 4h-36c-4 0-8-2-10-4l-4-8h-20zM880 70h-100s-2 0-2 2v66l2 2h22c2 0 6 2 8 4l4 8h36l4-8c0-2 4-4 6-4h20c2 0 2-2 2-2v-66c0-2 0-2-2-2zM770 444l30-18v-4l-10-38c-2-2-2-2-2-4 0 0 2-2 2-4 2-2 4-2 6-2s4 2 6 2l28 24c0 2 2 2 2 2l2-2 30-24c2-2 2-2 6-2 2 0 4 0 6 2v8l-14 38c0 2 2 4 2 4l30 18c0 2 2 2 2 2 2 2 2 2 2 6 0 0-2 2-2 4-2 0-2 2-4 2h-38c-2 0-2 0-2 2h-2l-10 38c0 2-2 4-2 4 0 2-2 4-6 4-2 0-4-2-6-4v-4l-12-38c0-2-2-2-2-2h-42c0-2-2-2-2-2-2-2-2-4-2-4 0-2 2-4 2-6l2-2zM832 492v2c4-14 10-46 10-46h34c2 0 4-2 4-2h-2l-28-18v-2l14-34v-2l-2 2-30 26v74zM500 384c0-2-2-4-2-6v-18c0-6 4-12 12-12 6 0 10 6 10 12v18c0 2 0 4-2 6 18 4 32 20 32 40 0 18-12 36-30 40v8c0 8-6 12-10 12-6 0-12-6-12-12v-8c-16-6-28-22-28-40 0-20 12-36 30-40zM510 452c16 0 28-12 28-28s-12-28-28-28-28 12-28 28 12 28 28 28zM518 306c2 0 2 2 2 4v18c0 6-4 12-10 12s-12-6-12-12v-18c0-2 2-4 2-6-18-4-30-20-30-38s12-34 30-40v-20c0-6 4-10 10-10s10 4 10 10v20c18 4 32 20 32 40s-14 36-34 40zM510 238c-16 0-28 12-28 28 0 14 14 28 28 28 16 0 28-14 28-28 0-16-12-28-28-28zM520 154v22c0 6-4 10-10 10s-12-4-12-10v-18c0-2 2-4 2-6-16-4-30-20-30-40 0-22 18-40 42-40 22 0 40 18 40 40 0 20-14 36-32 42zM510 86c-16 0-28 12-28 28s14 28 28 28c16 0 28-14 28-28 0-16-12-28-28-28zM524 112c0-6-6-14-14-14s-14 8-14 14c0 8 6 14 14 14s14-6 14-14zM524 266c0-8-6-14-14-14s-14 6-14 14 6 14 14 14 14-6 14-14zM524 424c0-8-6-14-14-14s-14 6-14 14 6 14 14 14 14-6 14-14z" />
<glyph unicode="&#x2013;" glyph-name="icon-notifications-new-fill" data-tags="icon-notifications-new-fill" horiz-adv-x="892" d="M824 82h-756c-26 0-52 16-62 42s-4 54 16 72c128 126 198 294 198 474 0 124 102 226 226 226s226-102 226-226c0-180 70-348 200-474 18-18 24-46 14-72s-34-42-62-42zM314 6c0-74 58-134 132-134s134 60 134 134h-266z" />
<glyph unicode="&#x2014;" glyph-name="icon-pure-veg" data-tags="icon-pure-veg" d="M1014 882c-8 6-18 10-28 10-32-4-780-90-952-452-60-128-40-274 58-432l-36-36c-14-14-14-36 0-48 6-6 14-10 24-10 8 0 16 4 24 10l36 36c96-58 188-88 274-88 494 0 604 942 610 982 0 10-4 20-10 28zM414-60c-70 0-146 24-226 68l88 88h204c18 0 34 14 34 34 0 18-16 32-34 32h-138l116 116h168c18 0 32 14 32 34 0 18-14 32-32 32h-102l116 116h58c18 0 34 14 34 34 0 18-16 32-34 32h-40v40c0 18-14 34-32 34s-34-16-34-34v-60l-114-114v102c0 18-16 34-34 34s-34-16-34-34v-168l-114-116v138c0 18-16 34-34 34s-34-16-34-34v-204l-88-88c-76 132-92 252-44 356 132 280 694 382 854 406-28-182-156-878-536-878z" />
<glyph unicode="&#x2018;" glyph-name="icon-expertise" data-tags="icon-expertise" horiz-adv-x="1004" d="M924-52h-836c-20 0-38-18-38-38 0-22 16-38 38-38h836c22 0 38 16 38 38 0 20-18 38-38 38zM966 698c-14 6-32 2-42-12l-204-266-188 266c-8 10-18 16-30 16-14-2-24-6-30-16l-190-266-202 266c-10 14-28 18-42 12-16-4-26-20-24-36l22-600c2-20 18-36 38-36h850c20 0 36 16 36 36l30 600c2 16-8 32-24 36zM912 548l-20-374-128 182 148 192zM236 356l-130-180-14 372 144-192zM144 100l140 196 146-196h-286zM328 358l174 242 170-242-172-224-172 224zM716 296l138-194h-286l148 194zM60 774c8 0 14 4 18 8l36 36c4 4 6 10 6 16 0 8-2 14-6 18l-36 36c-10 8-26 8-36 0l-34-36c-6-4-8-10-8-16 0-8 2-14 8-18l34-36c6-4 12-8 18-8zM484 782c6-4 12-8 18-8s12 4 18 8l34 36c6 4 8 10 8 16 0 8-2 14-8 18l-34 36c-10 8-26 8-36 0l-36-36c-4-4-6-10-6-18 0-6 2-12 6-16l36-36zM996 852l-36 36c-8 10-24 10-34 0l-36-36c-4-4-6-10-6-16 0-8 2-14 6-18l36-36c4-4 10-6 16-6 8 0 14 2 18 6l36 36c4 4 6 10 6 18 2 6 0 12-6 16z" />
<glyph unicode="&#x201a;" glyph-name="icon-search-new" data-tags="icon-search-new" d="M731.846 315.976h-46.254l-16.394 15.808c57.376 66.744 91.92 153.394 91.92 247.658 0 210.186-170.374 380.56-380.56 380.56s-380.56-170.374-380.56-380.56 170.374-380.56 380.56-380.56c94.262 0 180.914 34.544 247.656 91.92l15.808-16.394v-46.254l292.74-292.154 87.236 87.236-292.154 292.738zM380.56 315.976c-145.784 0-263.464 117.682-263.464 263.464s117.68 263.464 263.464 263.464 263.464-117.68 263.464-263.464-117.682-263.464-263.464-263.464z" />
<glyph unicode="&#x2022;" glyph-name="icon-down-arrow-01" data-tags="icon-down-arrow-01" horiz-adv-x="1026" d="M1026 516c0-8-4-16-10-22l-480-468c-12-12-32-12-44 0l-480 468c-14 12-14 32-2 44s32 12 44 0l460-448 460 448c12 12 32 12 44 0 4-6 8-14 8-22z" />
<glyph unicode="&#x20ac;" glyph-name="icon-card-cashless" data-tags="icon-card-cashless" d="M996 640l-292 292c-38 36-100 36-136 0l-540-538c-18-20-28-44-28-68 0-26 10-50 28-68l292-292c18-20 44-30 68-30 26 0 50 10 68 30l540 538c18 18 28 42 28 68s-10 50-28 68zM34 326c0 16 6 32 18 44l540 538c12 12 28 18 44 18s32-6 44-18l44-44-628-626-44 44c-12 10-18 26-18 44zM972 528l-540-538c-22-24-64-24-88 0l-224 222 628 628 224-224c12-12 18-28 18-44s-6-32-18-44zM736 696l-112-112c-8-6-8-18 0-24 4-4 8-4 12-4s8 0 12 4l112 112c6 6 6 18 0 24s-18 6-24 0zM488 450l-224-226c-6-6-6-18 0-24 4-4 8-4 12-4 6 0 10 0 12 4l226 224c6 8 6 18 0 26-8 6-18 6-26 0zM422 248l-90-90c-6-6-6-18 0-24 4-4 8-6 12-6s8 2 12 6l90 90c6 6 6 16 0 24-8 6-18 6-24 0z" />
<glyph unicode="&#x2122;" glyph-name="icon-metro" data-tags="icon-metro" horiz-adv-x="836" d="M828-76l-102 128c24 14 42 42 42 70v458c0 98-84 182-182 182h-336c-98 0-182-84-182-182v-458c0-28 18-54 42-70l-102-128c-8-10-10-22-4-34s16-18 28-18h102c10 0 18 4 26 12l124 156h270l124-156c6-8 14-12 26-12h100c12 0 24 6 28 18 6 10 4 24-4 34zM150 104c-6 0-16 12-18 18v140h572v-140c-2-6-12-18-18-18h-536zM704 546v-218h-570v218h570zM250 698h336c52 0 98-38 112-88h-560c14 50 60 88 112 88zM118-64h-16l82 102h16l-82-102zM718-64l-82 102h18l82-102h-18zM302 210h-68c-18 0-32-14-32-32s14-34 32-34h68c16 0 32 16 32 34s-16 32-32 32zM602 210h-66c-18 0-34-14-34-32s16-34 34-34h66c18 0 34 16 34 34s-16 32-34 32zM218 824h66c10 0 18 8 18 16v36c0 10-8 16-18 16h-66c-10 0-18-6-18-16v-36c0-8 8-16 18-16zM552 824h66c10 0 18 8 18 16v36c0 10-8 16-18 16h-66c-10 0-18-6-18-16v-36c2-8 8-16 18-16z" />
<glyph unicode="&#x2202;" glyph-name="icon-booking-1" data-tags="icon-booking-1" horiz-adv-x="858" d="M228 352c4 0 8 0 14 2 16 8 22 24 16 40-16 40-26 94-30 140h404c-4-46-14-100-30-140-8-16 0-32 16-40 16-6 32 0 40 18 26 62 36 142 36 196 0 16-14 28-30 28h-466c-16 0-28-12-28-28 0-50 8-134 36-196 0-14 10-20 22-20zM828 328h-798c-16 0-30-14-30-30s14-30 30-30h226l46-332h254l46 332h226c16 0 30 14 30 30s-14 30-30 30zM502-4h-146l-40 272h222l-36-272zM428 602c100 0 180 78 180 178s-80 180-180 180-180-80-180-180 80-178 180-178zM428 900c66 0 120-54 120-120s-54-120-120-120-120 54-120 120 54 120 120 120zM520 468c-6 16-24 24-40 18l-48-18-48 18c-16 8-34-2-40-16-4-12 0-26 8-34-8-8-12-22-8-34 6-12 18-20 30-20 4 0 6 0 10 2l48 18 48-18c4-2 8-2 12-2 12 0 24 8 28 20s0 26-8 34c8 8 12 22 8 32z" />
<glyph unicode="&#x2211;" glyph-name="icon-daily-menu" data-tags="icon-daily-menu" horiz-adv-x="806" d="M688 870c-2 16-14 28-30 28h-506c-16 0-30-12-32-28l-118-962c-2-16 10-32 28-34h2c16 0 30 12 32 28l14 116h652l12-116c2-18 18-30 36-28 16 2 28 18 26 34l-116 962zM86 80l92 756h454l90-756h-636zM136-54v-32c0-16 14-30 30-30 18 0 32 14 32 30v80h-62v-48zM602-54v-32c0-16 14-30 30-30 18 0 32 14 32 30v80h-62v-48zM558 680h-316c-16 0-30-14-30-30 0-18 14-32 30-32h316c16 0 30 14 30 32 0 16-14 30-30 30zM558 480h-316c-16 0-30-14-30-30s14-30 30-30h316c16 0 30 14 30 30s-14 30-30 30zM558 282h-316c-16 0-30-14-30-32 0-16 14-30 30-30h316c16 0 30 14 30 30 0 18-14 32-30 32z" />
<glyph unicode="&#xe000;" glyph-name="icon-rearrange" data-tags="icon-rearrange" d="M1010 414l-186 146c-16 12-38 10-50-6-6-8-8-16-8-22 0-12 6-22 14-30l102-80h-236c-12 46-50 84-96 96v238l82-104c6-8 18-14 28-14 8 0 16 4 22 8 16 12 18 36 6 52l-146 184c-6 10-18 14-28 14s-22-4-28-14l-150-184c-12-16-10-40 6-52s40-10 52 6l84 106v-238c-48-14-86-50-100-98h-238l104 80c8 8 14 18 14 30 0 8-4 14-8 22-12 16-36 18-52 6l-184-146c-10-6-14-18-14-28s4-22 14-28l184-150c16-12 40-10 52 6s10 40-6 52l-106 84h238c14-50 52-88 102-102v-238l-84 106c-12 16-36 18-52 6s-18-36-6-52l150-184c6-8 16-14 28-14 10 0 22 6 28 14l146 186c12 16 10 38-6 52-6 4-16 6-22 6-12 0-22-4-30-14l-80-102v236c46 12 84 52 98 100h238l-106-84c-16-12-18-36-6-52s36-18 52-6l184 150c8 6 14 16 14 28 0 10-4 22-14 28z" />
<glyph unicode="&#xe001;" glyph-name="icon-expertise-yay" data-tags="icon-expertise-yay" d="M764-86h-478c-12 0-20-10-20-22 0-10 8-20 20-20h478c12 0 22 10 22 20 0 12-10 22-22 22zM788 344c-8 2-18 0-24-8l-116-152-108 152c-4 4-10 8-16 8-8 0-14-4-18-8l-108-152-116 152c-6 8-14 10-24 8-8-4-14-12-14-22l14-342c0-12 10-20 22-20h484c12 0 22 8 22 20l16 342c2 10-4 18-14 22zM758 256l-12-212-72 104 84 108zM372 148l-74-104-8 214 82-110zM320 2l78 110 84-110h-162zM424 148l100 138 96-138-98-128-98 128zM646 112l78-110h-162l84 110zM256 394c2 0 6 0 8 2l16 16c4 6 4 12 0 18l-16 16c-4 4-12 4-18 0l-16-16c-4-6-4-12 0-18l16-16c4-2 6-2 10-2zM516 396c2-2 4-4 8-4 2 0 6 2 8 4l16 16c4 6 4 12 0 18l-16 16c-4 4-12 4-16 0l-18-16c-4-6-4-12 0-18l18-16zM800 446c-4 4-12 4-16 0l-18-16c-4-6-4-12 0-18l18-16c2-2 4-4 8-4 2 0 6 2 8 4l16 16c4 6 4 12 0 18l-16 16zM886 218c4 0 6 0 8 2l54 30c8 4 10 16 6 24s-14 12-24 6l-52-30c-8-4-12-14-6-24 4-4 8-8 14-8zM948-24l-52 30c-8 4-20 2-24-8-4-8-2-18 6-22l54-30c2-2 4-2 8-2 6 0 12 2 14 8 4 8 2 18-6 24zM1006 132h-62c-10 0-18-8-18-16 0-10 8-18 18-18h62c10 0 18 8 18 18 0 8-8 16-18 16zM146 250l-52 30c-10 6-20 2-24-6s-2-20 6-24l54-30c2-2 4-2 8-2 6 0 12 4 14 8 4 10 2 20-6 24zM130 6l-54-30c-8-6-10-16-6-24 2-6 8-8 14-8 4 0 6 0 10 2l52 30c8 4 12 14 6 22-4 10-14 12-22 8zM98 116c0 10-8 18-18 18h-62c-10-2-18-10-18-18 0-10 8-18 18-18h62c10 0 18 8 18 18z" />
<glyph unicode="&#xe002;" glyph-name="icon-cart" data-tags="icon-cart" horiz-adv-x="1026" d="M810 162c-54 0-96-44-96-98 0-52 42-96 96-96s98 44 98 96c0 54-44 98-98 98zM810 30c-18 0-36 14-36 34s16 36 36 36 36-16 36-36-16-34-36-34zM396 162c-54 0-98-44-98-98 0-52 44-96 98-96s98 44 98 96c0 54-44 98-98 98zM396 30c-20 0-36 14-36 34s16 36 36 36 36-16 36-36c0-18-16-34-36-34zM1018 648c-6 8-14 12-24 12h-736l-52 208c-2 14-14 24-28 24h-148c-16 0-30-14-30-30 0-18 14-32 30-32h124l142-592c0-2 2-4 4-6v-2c0-16 14-30 30-30h538c14 0 24 8 30 22l124 398c4 10 2 20-4 28zM846 262h-492l-82 336h680l-106-336z" />
<glyph unicode="&#xe003;" glyph-name="icon-bakery-fill" data-tags="icon-bakery-fill" horiz-adv-x="980" d="M778 760c-44 120-160 200-288 200-130 0-244-80-290-200-112 0-200-92-200-202 0-92 60-168 142-194l68-340c0-8 6-16 14-20 4-2 108-64 260-68h10c52 2 96 8 134 18h4c6 0 10 2 14 4 68 20 108 44 110 46 8 4 12 10 14 20l70 340c80 28 140 104 140 194 0 110-90 202-202 202zM538 774l54 42c12 10 32 8 42-4 10-14 8-34-4-44l-54-42c-6-6-12-8-18-8-10 0-18 4-24 12-12 14-10 32 4 44zM466 592l50-34c14-8 18-28 10-42-6-10-16-14-26-14-6 0-12 2-18 6l-48 32c-16 10-18 28-10 42 10 16 28 18 42 10zM338 738l50 42c12 10 32 10 42-4 12-14 10-32-2-42l-50-44c-6-4-14-6-20-6-10 0-18 4-24 10-12 14-10 32 4 44zM164 518c-18 0-32 14-32 30s14 32 30 32l68 2c18 0 32-12 32-30 0-16-12-30-30-32l-68-2zM388 10l-62 16c2 84-6 132-26 214-2 18 8 34 24 38s34-8 36-24c22-92 30-150 28-244zM524 0h-62v248c0 16 14 30 32 30 16 0 30-14 30-30v-248zM684 242c-16-90-26-138-24-214l-62-18c-2 86 6 144 26 244 4 16 20 26 36 24 16-4 28-20 24-36zM774 338c-52 0-102 18-142 52-38-34-90-54-144-54-52 0-104 20-144 54-38-34-86-52-138-52-10 0-18 8-18 16 0 10 8 18 18 20 46 0 92 20 126 54 4 4 8 6 12 6 6 0 10-2 14-6 34-36 82-56 130-56 50 0 98 20 132 56 4 4 8 6 12 6 6 0 10-2 14-6 34-34 80-54 128-54 10 0 18-8 18-18s-8-18-18-18zM814 612l-34-48c-6-8-16-12-24-12s-14 2-18 6c-14 10-18 28-8 42l34 48c10 14 28 18 44 8 14-10 16-30 6-44z" />
<glyph unicode="&#xe004;" glyph-name="icon-bar-fill-1" data-tags="icon-bar-fill-1" horiz-adv-x="592" d="M592 550v4l-50 316c-2 16-14 26-30 26h-432c-16 0-28-10-30-26l-50-314v-6c0-156 114-280 266-296v-320h-86c-16 0-30-14-30-32 0-16 14-30 30-30h232c18 0 32 14 32 30 0 18-14 32-32 32h-86v322c152 14 266 138 266 294zM106 834h380l26-170-432-2 26 172z" />
<glyph unicode="&#xe005;" glyph-name="icon-beverage-fill" data-tags="icon-beverage-fill" horiz-adv-x="790" d="M780 708c-6 6-14 10-24 10h-462l-6 44c-8 76-82 134-168 134h-88c-18 0-32-14-32-32s14-34 32-34h88c52 0 98-34 102-74l6-38h-94c-8 0-18-4-24-10-6-8-10-18-8-28l106-780c4-16 18-28 32-28h408c18 0 32 12 34 28l106 782c2 8-2 18-8 26zM188 540l-16 112h62l12-112h-58zM404 296c0 18 14 32 32 32s34-14 34-32-16-34-34-34-32 14-32 34zM472 14c-18 0-32 16-32 34s14 32 32 32 34-14 34-32c0-20-16-34-34-34zM578 156c-18 0-32 14-32 32s14 34 32 34 34-16 34-34-16-32-34-32zM578 334c-18 0-32 14-32 32s14 32 32 32 34-14 34-32-16-32-34-32zM312 540l-12 112h418l-14-112h-392z" />
</font>
</defs>
</svg>
